<svg width="1632.756836" height="927.164429" viewBox="0 0 1632.76 927.164" fill="none" xmlns="http://www.w3.org/2000/svg" xmlns:xlink="http://www.w3.org/1999/xlink">
	<desc>
			Created with Pixso.
	</desc>
	<defs/>
	<path id="Vector" d="M644.9 528.93L326.38 528.93C323.64 528.93 321.01 527.84 319.07 525.9C317.13 523.97 316.04 521.34 316.03 518.6L316.03 54.59C316.04 51.85 317.13 49.22 319.07 47.29C321.01 45.35 323.64 44.26 326.38 44.26L644.9 44.26C647.64 44.27 650.26 45.36 652.2 47.29C654.14 49.23 655.22 51.85 655.23 54.59L655.23 518.6C655.22 521.34 654.14 523.96 652.2 525.9C650.26 527.83 647.64 528.92 644.9 528.93ZM326.38 44.7C323.76 44.7 321.24 45.74 319.38 47.6C317.53 49.45 316.48 51.97 316.47 54.59L316.47 518.6C316.48 521.22 317.53 523.74 319.38 525.59C321.24 527.45 323.76 528.49 326.38 528.49L644.9 528.49C647.52 528.49 650.04 527.44 651.89 525.59C653.75 523.74 654.79 521.22 654.79 518.6L654.79 54.59C654.79 51.97 653.75 49.45 651.89 47.6C650.04 45.74 647.52 44.7 644.9 44.7L326.38 44.7Z" fill="#E0E0E0" fill-opacity="1.000000" fill-rule="nonzero"/>
	<path id="Vector" d="M1064.43 696.37L1090.22 696.37L1090.22 697.11L1064.43 697.11L1064.43 696.37Z" fill="#EBEBEB" fill-opacity="1.000000" fill-rule="evenodd"/>
	<path id="Vector" d="M418.08 665.78L436.87 665.78L436.87 666.52L418.08 666.52L418.08 665.78Z" fill="#EBEBEB" fill-opacity="1.000000" fill-rule="evenodd"/>
	<path id="Vector" d="M466.56 670.54C471.2 670.12 475.55 668.14 478.9 664.92C482.22 661.69 484.93 657.89 486.9 653.71C492.48 642.71 495.13 630.46 494.62 618.14C494.64 615.5 494.12 612.89 493.11 610.46C492.59 609.25 491.78 608.18 490.77 607.35C489.75 606.52 488.54 605.95 487.25 605.68C483.36 605.12 479.98 608.22 477.51 611.27C466.23 625.32 460.58 643.05 461.65 661.04C461.93 665.39 463.41 669.59 466.51 670.52L466.56 670.54Z" fill="#ED564A" fill-opacity="1.000000" fill-rule="nonzero"/>
	<path id="Vector" d="M440.92 634.64C445.18 625.21 445.81 614.54 442.68 604.68C439.56 594.91 433.93 586.14 426.36 579.23C418.19 571.56 407.68 565.67 396.4 565.6C391.61 565.6 386.44 566.87 383.5 570.64C380.56 574.41 380.65 580.37 382 585.27C384.49 593.27 388.84 600.55 394.71 606.53C400.56 612.47 406.88 617.92 413.62 622.83C421.08 628.56 429.11 634.48 438.47 635.17L440.92 634.64Z" fill="#ED564A" fill-opacity="1.000000" fill-rule="nonzero"/>
	<path id="Vector" d="M440.25 665.73C438.93 655.38 430.89 646.81 421.48 642.28C412.07 637.76 401.42 636.65 391.01 636.13C388.69 635.89 386.35 636.06 384.1 636.63C382.97 636.92 381.94 637.49 381.09 638.29C380.23 639.08 379.59 640.07 379.22 641.18C378.42 644.12 380.29 647.08 382.25 649.4C388.02 656.24 395.25 661.7 403.4 665.39C411.55 669.08 420.41 670.91 429.36 670.75C431.43 670.78 433.49 670.44 435.44 669.73C436.41 669.36 437.28 668.79 438 668.05C438.73 667.31 439.28 666.42 439.62 665.44L440.25 665.73Z" fill="#ED564A" fill-opacity="1.000000" fill-rule="nonzero"/>
	<path id="Vector" d="M485.9 612.24C475.3 638.11 466.82 664.8 460.55 692.04C458.75 699.85 457.14 707.71 455.71 715.6C455.56 716.43 456.83 716.8 456.97 715.95C461.97 688.45 469.19 661.4 478.56 635.06C481.27 627.49 484.13 620 487.16 612.59C487.5 611.8 486.21 611.46 485.9 612.24Z" fill="#E0E0E0" fill-opacity="1.000000" fill-rule="nonzero"/>
	<path id="Vector" d="M453.05 703.55C453.66 684.46 452.11 665.18 446.67 646.8C441.38 628.85 432.21 612.28 419.81 598.28C411.82 589.41 402.77 581.55 392.88 574.87C392.17 574.4 391.52 575.54 392.21 576.02C409.15 587.29 423.34 602.24 433.71 619.74C442.71 635.81 448.41 653.51 450.46 671.81C451.7 682.33 452.12 692.94 451.72 703.53C451.72 704.38 453.01 704.38 453.05 703.53L453.05 703.55Z" fill="#E0E0E0" fill-opacity="1.000000" fill-rule="nonzero"/>
	<path id="Vector" d="M452.08 676.74C437.06 659.31 416.54 647.53 393.92 643.36C393.09 643.22 392.73 644.49 393.56 644.63C416 648.73 436.35 660.39 451.23 677.68C451.78 678.31 452.71 677.38 452.16 676.74L452.08 676.74Z" fill="#E0E0E0" fill-opacity="1.000000" fill-rule="nonzero"/>
	<path id="Vector" d="M418.41 717.01L418.41 694.61L480.84 694.61L480.84 717.01C480.84 717.01 482.04 756.63 460.04 760.23L439.23 760.23C417.22 756.63 418.41 717.01 418.41 717.01Z" fill="#ED564A" fill-opacity="1.000000" fill-rule="nonzero"/>
	<path id="Vector" d="M1068.24 292.02L1068.24 91.14L1368.73 91.14L1368.73 292.02L1068.24 292.02Z" fill="#E0E0E0" fill-opacity="1.000000" fill-rule="evenodd"/>
	<g opacity="0.600000">
		<path id="Vector" d="M1082.25 276.92L1082.25 106.25L1354.72 106.25L1354.72 276.92L1082.25 276.92Z" fill="#FFFFFF" fill-opacity="1.000000" fill-rule="evenodd"/>
	</g>
	<path id="Vector" d="M1092.06 265.64L1092.06 117.53L1344.88 117.53L1344.88 265.64L1092.06 265.64Z" fill="#FFFFFF" fill-opacity="1.000000" fill-rule="evenodd"/>
	<path id="Vector" d="M1125.24 231.59L1125.24 149.57L1308.84 149.57L1308.84 231.59L1125.24 231.59Z" fill="#ED564A" fill-opacity="1.000000" fill-rule="evenodd"/>
	<path id="Vector" d="M1264.07 366.91L1345.73 366.91C1347.96 366.91 1349.77 368.71 1349.77 370.94L1349.77 386.65C1349.77 388.88 1347.96 390.68 1345.73 390.68L1264.07 390.68C1261.85 390.68 1260.04 388.88 1260.04 386.65L1260.04 370.94C1260.04 368.71 1261.85 366.91 1264.07 366.91Z" fill="#EBEBEB" fill-opacity="1.000000" fill-rule="evenodd"/>
	<path id="Vector" d="M1166.43 367.54L1248.09 367.54C1250.31 367.54 1252.13 369.35 1252.13 371.58L1252.13 387.28C1252.13 389.51 1250.31 391.32 1248.09 391.32L1166.43 391.32C1164.21 391.32 1162.4 389.51 1162.4 387.28L1162.4 371.58C1162.4 369.35 1164.21 367.54 1166.43 367.54Z" fill="#F5F5F5" fill-opacity="1.000000" fill-rule="evenodd"/>
	<path id="Vector" d="M1216.51 396.06L1298.16 396.06C1300.39 396.06 1302.19 397.87 1302.19 400.09L1302.19 415.8C1302.19 418.03 1300.39 419.83 1298.16 419.83L1216.51 419.83C1214.28 419.83 1212.47 418.03 1212.47 415.8L1212.47 400.09C1212.47 397.87 1214.28 396.06 1216.51 396.06Z" fill="#F5F5F5" fill-opacity="1.000000" fill-rule="evenodd"/>
	<path id="Vector" d="M1224.21 337L1305.86 337C1308.09 337 1309.9 338.81 1309.9 341.04L1309.9 356.74C1309.9 358.97 1308.09 360.77 1305.86 360.77L1224.21 360.77C1221.98 360.77 1220.18 358.97 1220.18 356.74L1220.18 341.04C1220.18 338.81 1221.98 337 1224.21 337Z" fill="#F5F5F5" fill-opacity="1.000000" fill-rule="evenodd"/>
	<path id="Vector" d="M1358.84 778.5C1358.84 792.84 1132.31 804.46 852.87 804.46C573.43 804.46 346.89 792.84 346.89 778.5C346.89 764.17 573.43 752.54 852.87 752.54C1132.31 752.54 1358.84 764.17 1358.84 778.5Z" fill="#CBA543" fill-opacity="1.000000" fill-rule="evenodd"/>
	<path id="Vector" d="M336.74 42.61L635.82 42.61L635.82 515.62L336.74 515.62L336.74 42.61Z" fill="#B97964" fill-opacity="1.000000" fill-rule="evenodd"/>
	<path id="Vector" d="M345.24 51.08L629.52 51.08L629.52 507.8L345.24 507.8L345.24 51.08Z" fill="#ED564A" fill-opacity="1.000000" fill-rule="evenodd"/>
	<g opacity="0.600000">
		<path id="Vector" d="M345.24 51.08L629.52 51.08L629.52 507.8L345.24 507.8L345.24 51.08Z" fill="#FFFFFF" fill-opacity="1.000000" fill-rule="evenodd"/>
	</g>
	<g opacity="0.300000">
		<path id="Vector" d="M632.85 174.93L345.24 436.66L345.24 507.8L387.64 507.8L632.85 279.44L632.85 174.93Z" fill="#FFFFFF" fill-opacity="1.000000" fill-rule="nonzero"/>
	</g>
	<g opacity="0.300000">
		<path id="Vector" d="M436.02 157.9C436.02 157.9 595.55 51.08 597.32 51.08L672.22 51.08L517.58 156.83L436.02 157.9Z" fill="#FFFFFF" fill-opacity="1.000000" fill-rule="nonzero"/>
	</g>
	<path id="Vector" d="M345.24 156.88L632.86 156.88L632.86 165.25L345.24 165.25L345.24 156.88Z" fill="#B97964" fill-opacity="1.000000" fill-rule="evenodd"/>
	<path id="Vector" d="M685.77 42.61L685.77 600.01L662.19 600.01L662.19 610.49L608.47 610.49L608.47 42.61L685.77 42.61Z" fill="#ED564A" fill-opacity="1.000000" fill-rule="nonzero"/>
	<g opacity="0.300000">
		<path id="Vector" d="M685.77 42.61L685.77 600.01L662.19 600.01L662.19 610.49L608.47 610.49L608.47 42.61L685.77 42.61Z" fill="#000000" fill-opacity="1.000000" fill-rule="nonzero"/>
	</g>
	<g opacity="0.300000">
		<path id="Vector" d="M663.51 610.49L663.51 164.32C663.51 163.97 663.37 163.63 663.13 163.38C662.88 163.14 662.54 163 662.19 163C661.84 163 661.5 163.14 661.26 163.38C661.01 163.63 660.87 163.97 660.87 164.32L660.87 610.49C660.87 610.84 661.01 611.18 661.26 611.43C661.5 611.67 661.84 611.81 662.19 611.81C662.54 611.81 662.88 611.67 663.13 611.43C663.37 611.18 663.51 610.84 663.51 610.49Z" fill="#000000" fill-opacity="1.000000" fill-rule="nonzero"/>
	</g>
	<g opacity="0.300000">
		<path id="Vector" d="M663.44 157.9L663.44 148.58C663.44 148.23 663.3 147.89 663.05 147.64C662.81 147.4 662.47 147.26 662.12 147.26C661.77 147.26 661.43 147.4 661.18 147.64C660.94 147.89 660.8 148.23 660.8 148.58L660.8 157.9C660.8 158.25 660.94 158.59 661.18 158.84C661.43 159.09 661.77 159.22 662.12 159.22C662.47 159.22 662.81 159.09 663.05 158.84C663.3 158.59 663.44 158.25 663.44 157.9Z" fill="#000000" fill-opacity="1.000000" fill-rule="nonzero"/>
	</g>
	<path id="Vector" d="M480.61 161.06L489.03 161.06L489.03 507.78L480.61 507.78L480.61 161.06Z" fill="#B97964" fill-opacity="1.000000" fill-rule="evenodd"/>
	<g opacity="0.300000">
		<path id="Vector" d="M365.26 156.86C364.13 156.86 530.38 51.12 532.27 51.12C534.15 51.12 572.06 52.02 571.16 51.12C570.26 50.22 406.57 156.86 406.57 156.86L365.26 156.86Z" fill="#FFFFFF" fill-opacity="1.000000" fill-rule="nonzero"/>
	</g>
	<path id="Vector" d="M286.83 42.61L286.83 600.01L310.41 600.01L310.41 610.49L364.13 610.49L364.13 42.61L286.83 42.61Z" fill="#ED564A" fill-opacity="1.000000" fill-rule="nonzero"/>
	<g opacity="0.300000">
		<path id="Vector" d="M286.83 42.61L286.83 600.01L310.41 600.01L310.41 610.49L364.13 610.49L364.13 42.61L286.83 42.61Z" fill="#000000" fill-opacity="1.000000" fill-rule="nonzero"/>
	</g>
	<g opacity="0.300000">
		<path id="Vector" d="M311.8 610.49L311.8 164.32C311.8 163.97 311.66 163.63 311.42 163.38C311.17 163.14 310.83 163 310.48 163C310.13 163 309.79 163.14 309.55 163.38C309.3 163.63 309.16 163.97 309.16 164.32L309.16 610.49C309.16 610.84 309.3 611.18 309.55 611.43C309.79 611.67 310.13 611.81 310.48 611.81C310.83 611.81 311.17 611.67 311.42 611.43C311.66 611.18 311.8 610.84 311.8 610.49Z" fill="#000000" fill-opacity="1.000000" fill-rule="nonzero"/>
	</g>
	<g opacity="0.300000">
		<path id="Vector" d="M338.06 610.63L338.06 385.04C338.06 384.69 337.92 384.36 337.68 384.11C337.43 383.86 337.09 383.72 336.74 383.72C336.39 383.72 336.06 383.86 335.81 384.11C335.56 384.36 335.42 384.69 335.42 385.04L335.42 610.63C335.42 610.98 335.56 611.32 335.81 611.57C336.06 611.82 336.39 611.95 336.74 611.95C337.09 611.95 337.43 611.82 337.68 611.57C337.92 611.32 338.06 610.98 338.06 610.63Z" fill="#000000" fill-opacity="1.000000" fill-rule="nonzero"/>
	</g>
	<g opacity="0.300000">
		<path id="Vector" d="M311.8 157.9L311.8 148.58C311.8 148.23 311.66 147.89 311.42 147.64C311.17 147.4 310.83 147.26 310.48 147.26C310.13 147.26 309.79 147.4 309.55 147.64C309.3 147.89 309.16 148.23 309.16 148.58L309.16 157.9C309.16 158.25 309.3 158.59 309.55 158.84C309.79 159.09 310.13 159.22 310.48 159.22C310.83 159.22 311.17 159.09 311.42 158.84C311.66 158.59 311.8 158.25 311.8 157.9Z" fill="#000000" fill-opacity="1.000000" fill-rule="nonzero"/>
	</g>
	<path id="Vector" d="M267.99 37.46L711.11 37.46L711.11 51.08L267.99 51.08L267.99 37.46Z" fill="#263238" fill-opacity="1.000000" fill-rule="evenodd"/>
	<g opacity="0.600000">
		<path id="Vector" d="M267.99 37.46L711.11 37.46L711.11 51.08L267.99 51.08L267.99 37.46Z" fill="#FFFFFF" fill-opacity="1.000000" fill-rule="evenodd"/>
	</g>
	<g opacity="0.300000">
		<path id="Vector" d="M286.83 51.08L685.77 51.08L685.77 63.54L286.83 63.54L286.83 51.08Z" fill="#000000" fill-opacity="1.000000" fill-rule="evenodd"/>
	</g>
	<path id="Vector" d="M268.59 53.23L710.43 53.23C710.78 53.23 711.11 53.09 711.36 52.85C711.61 52.6 711.75 52.26 711.75 51.91C711.75 51.56 711.61 51.22 711.36 50.98C711.11 50.73 710.78 50.59 710.43 50.59L268.59 50.59C268.24 50.59 267.9 50.73 267.65 50.98C267.41 51.22 267.27 51.56 267.27 51.91C267.27 52.26 267.41 52.6 267.65 52.85C267.9 53.09 268.24 53.23 268.59 53.23Z" fill="#263238" fill-opacity="1.000000" fill-rule="nonzero"/>
	<path id="Vector" d="M1241.77 477.15C1225.59 542.5 1188.89 686.15 1188.89 686.15L1118.4 686.15L1178.11 443.84L1216.97 444.7C1220.89 444.78 1224.74 445.75 1228.24 447.52C1231.74 449.3 1234.8 451.84 1237.18 454.95C1239.56 458.07 1241.21 461.69 1242 465.53C1242.8 469.37 1242.72 473.34 1241.77 477.15Z" fill="#ED564A" fill-opacity="1.000000" fill-rule="nonzero"/>
	<g opacity="0.300000">
		<path id="Vector" d="M1185.79 469.11C1176.11 471.45 1165.89 502.49 1165.89 502.49C1165.89 502.49 1167.19 494.82 1169.15 484.69L1178.25 444.72L1178.51 443.84L1217.29 444.7C1220.72 444.78 1224.11 445.53 1227.26 446.92C1230.4 448.3 1233.24 450.3 1235.62 452.78C1237.99 455.27 1239.85 458.2 1241.09 461.41C1242.32 464.62 1242.92 468.04 1242.84 471.47C1233.55 470.77 1208.14 463.74 1185.79 469.11Z" fill="#FFFFFF" fill-opacity="1.000000" fill-rule="nonzero"/>
	</g>
	<path id="Vector" d="M549.48 692.39C548.41 695.92 532.6 783.23 533.62 783.23L541.5 783.23C541.17 783.23 574.58 698.01 574.58 698.01L549.48 692.39Z" fill="#A24E3F" fill-opacity="1.000000" fill-rule="nonzero"/>
	<g opacity="0.300000">
		<path id="Vector" d="M548.32 698.01L574.63 698.01L571.67 705.57L546.63 705.57L548.32 698.01Z" fill="#000000" fill-opacity="1.000000" fill-rule="nonzero"/>
	</g>
	<path id="Vector" d="M688.04 692.39C686.97 695.92 671.16 783.23 672.18 783.23L680.15 783.23C679.81 783.23 713.23 698.01 713.23 698.01L688.04 692.39Z" fill="#A24E3F" fill-opacity="1.000000" fill-rule="nonzero"/>
	<g opacity="0.300000">
		<path id="Vector" d="M686.88 698.01L713.19 698.01L710.23 705.57L685.21 705.57L686.88 698.01Z" fill="#000000" fill-opacity="1.000000" fill-rule="nonzero"/>
	</g>
	<path id="Vector" d="M1145.91 692.39C1146.98 695.92 1162.79 783.23 1161.77 783.23L1153.89 783.23C1154.23 783.23 1120.81 698.01 1120.81 698.01L1145.91 692.39Z" fill="#A24E3F" fill-opacity="1.000000" fill-rule="nonzero"/>
	<g opacity="0.300000">
		<path id="Vector" d="M1147.06 698.01L1120.76 698.01L1123.72 705.57L1148.75 705.57L1147.06 698.01Z" fill="#000000" fill-opacity="1.000000" fill-rule="nonzero"/>
	</g>
	<path id="Vector" d="M1040.27 692.39C1041.34 695.92 1057.15 783.23 1056.13 783.23L1048.25 783.23C1048.59 783.23 1015.19 698.01 1015.19 698.01L1040.27 692.39Z" fill="#A24E3F" fill-opacity="1.000000" fill-rule="nonzero"/>
	<g opacity="0.300000">
		<path id="Vector" d="M1041.44 698.01L1015.13 698.01L1018.09 705.57L1043.12 705.57L1041.44 698.01Z" fill="#000000" fill-opacity="1.000000" fill-rule="nonzero"/>
	</g>
	<path id="Vector" d="M523.65 425.47L563.83 626.78L1150.72 626.78C1151.42 626.78 1152.09 626.54 1152.63 626.09C1153.17 625.65 1153.54 625.03 1153.66 624.34L1190.81 425.07C1191.71 420.27 1191.54 415.33 1190.31 410.61C1189.07 405.88 1186.82 401.49 1183.71 397.73C1180.59 393.98 1176.68 390.95 1172.26 388.88C1167.84 386.81 1163.02 385.73 1158.14 385.73L556.25 385.73C551.34 385.73 546.48 386.82 542.04 388.93C537.59 391.03 533.67 394.09 530.56 397.89C527.44 401.69 525.2 406.14 524.01 410.91C522.81 415.68 522.69 420.65 523.65 425.47Z" fill="#ED564A" fill-opacity="1.000000" fill-rule="nonzero"/>
	<g opacity="0.200000">
		<path id="Vector" d="M536.42 487.32C536.42 487.32 550.52 549 591.15 549C631.77 549 792.94 555.82 812.44 538.83C831.93 521.84 852.71 480.37 852.71 480.37C852.71 480.37 874.4 543.98 920.14 547.98C976.04 552.88 1114.43 557.2 1129.87 548.26C1145.31 539.33 1178.67 471.68 1178.67 471.68L1144.48 584.83L560.64 584.83L536.42 487.32Z" fill="#000000" fill-opacity="1.000000" fill-rule="nonzero"/>
	</g>
	<path id="Vector" d="M463.65 477.15C479.83 542.5 516.61 686.15 516.61 686.15L582.48 686.42L527.29 443.84L488.43 444.7C484.51 444.78 480.66 445.75 477.16 447.52C473.66 449.3 470.61 451.84 468.23 454.95C465.85 458.07 464.2 461.69 463.41 465.53C462.61 469.37 462.7 473.34 463.65 477.15Z" fill="#ED564A" fill-opacity="1.000000" fill-rule="nonzero"/>
	<g opacity="0.300000">
		<path id="Vector" d="M519.95 469.11C529.64 471.45 539.86 502.49 539.86 502.49C539.86 502.49 538.54 494.82 536.6 484.69L527.51 444.72C527.51 444.42 527.33 444.14 527.22 443.84L488.45 444.7C485.02 444.78 481.63 445.53 478.48 446.92C475.34 448.3 472.5 450.3 470.13 452.79C467.75 455.27 465.89 458.2 464.66 461.41C463.42 464.62 462.83 468.04 462.91 471.47C472.18 470.77 497.6 463.74 519.95 469.11Z" fill="#FFFFFF" fill-opacity="1.000000" fill-rule="nonzero"/>
	</g>
	<path id="Vector" d="M556.81 619.3L1161.26 619.3L1161.26 687.83L556.81 687.83L556.81 619.3Z" fill="#ED564A" fill-opacity="1.000000" fill-rule="evenodd"/>
	<path id="Vector" d="M516.7 686.03L1188.79 686.03L1188.79 690.77C1188.79 692.85 1187.96 694.85 1186.48 696.33C1185.01 697.8 1183.01 698.63 1180.93 698.63L523.29 698.63C521.53 698.63 519.84 697.93 518.6 696.68C517.35 695.44 516.65 693.75 516.65 691.99L516.65 686.03L516.7 686.03Z" fill="#A24E3F" fill-opacity="1.000000" fill-rule="nonzero"/>
	<g opacity="0.300000">
		<path id="Vector" d="M525.32 444.12L535.63 489.82L551.95 562.08C553.2 567.59 554.44 573.09 555.69 578.61C556.06 580.27 558.61 579.58 558.22 577.9L547.97 532.19C542.54 508.11 537.11 484.03 531.67 459.93C530.41 454.42 529.16 448.9 527.93 443.38C527.56 441.72 525 442.43 525.37 444.08L525.32 444.12Z" fill="#000000" fill-opacity="1.000000" fill-rule="nonzero"/>
	</g>
	<g opacity="0.300000">
		<path id="Vector" d="M1185.86 441.12L1173.75 484.2C1167.38 506.93 1160.99 529.67 1154.6 552.4C1153.13 557.65 1151.65 562.91 1150.17 568.16C1150.07 568.5 1150.13 568.86 1150.3 569.16C1150.48 569.47 1150.77 569.69 1151.11 569.78C1151.44 569.87 1151.81 569.82 1152.11 569.65C1152.42 569.47 1152.64 569.18 1152.73 568.84L1164.81 525.77C1171.19 503.04 1177.57 480.3 1183.98 457.57C1185.46 452.28 1186.92 446.99 1188.4 441.81C1188.49 441.47 1188.43 441.11 1188.27 440.81C1188.09 440.5 1187.8 440.28 1187.47 440.19C1187.13 440.1 1186.77 440.15 1186.46 440.32C1186.16 440.5 1185.93 440.78 1185.84 441.12L1185.86 441.12Z" fill="#000000" fill-opacity="1.000000" fill-rule="nonzero"/>
	</g>
	<path id="Vector" d="M578.18 564.97L1137.46 564.97C1143.91 564.97 1150.09 567.53 1154.65 572.09C1159.21 576.64 1161.77 582.83 1161.77 589.27L1161.77 619.23L551.23 619.23L551.23 591.92C551.23 584.77 554.07 577.91 559.12 572.86C564.17 567.81 571.03 564.97 578.18 564.97Z" fill="#ED564A" fill-opacity="1.000000" fill-rule="nonzero"/>
	<g opacity="0.300000">
		<path id="Vector" d="M1161.77 592.06L551.23 589.73C551.22 586.48 551.85 583.25 553.09 580.24C554.33 577.23 556.15 574.5 558.45 572.19C560.76 569.89 563.49 568.07 566.5 566.83C569.51 565.59 572.73 564.96 575.99 564.97L1139.43 564.97C1145.36 564.97 1151.04 567.32 1155.23 571.51C1159.42 575.7 1161.77 581.38 1161.77 587.3L1161.77 592.06Z" fill="#FFFFFF" fill-opacity="1.000000" fill-rule="nonzero"/>
	</g>
	<g opacity="0.300000">
		<path id="Vector" d="M549.73 592.06L549.73 685.32C549.73 685.67 549.87 686.01 550.12 686.26C550.36 686.51 550.7 686.65 551.05 686.65C551.4 686.65 551.74 686.51 551.99 686.26C552.23 686.01 552.37 685.67 552.37 685.32L552.37 592.06C552.37 591.71 552.23 591.37 551.99 591.12C551.74 590.87 551.4 590.73 551.05 590.73C550.7 590.73 550.36 590.87 550.12 591.12C549.87 591.37 549.73 591.71 549.73 592.06Z" fill="#000000" fill-opacity="1.000000" fill-rule="nonzero"/>
	</g>
	<g opacity="0.300000">
		<path id="Vector" d="M1159.94 592.06L1159.94 685.32C1159.94 685.67 1160.09 686.01 1160.34 686.26C1160.59 686.51 1160.92 686.65 1161.28 686.65C1161.63 686.65 1161.96 686.51 1162.21 686.26C1162.46 686.01 1162.6 685.67 1162.6 685.32L1162.6 592.06C1162.6 591.71 1162.46 591.37 1162.21 591.12C1161.96 590.87 1161.63 590.73 1161.28 590.73C1160.92 590.73 1160.59 590.87 1160.34 591.12C1160.09 591.37 1159.94 591.71 1159.94 592.06Z" fill="#000000" fill-opacity="1.000000" fill-rule="nonzero"/>
	</g>
	<g opacity="0.300000">
		<path id="Vector" d="M851.39 387.51L851.39 562.91C851.39 563.26 851.52 563.59 851.77 563.84C852.02 564.09 852.36 564.23 852.71 564.23C853.06 564.23 853.39 564.09 853.64 563.84C853.89 563.59 854.03 563.26 854.03 562.91L854.03 387.51C854.03 387.16 853.89 386.82 853.64 386.58C853.39 386.33 853.06 386.19 852.71 386.19C852.36 386.19 852.02 386.33 851.77 386.58C851.52 386.82 851.39 387.16 851.39 387.51Z" fill="#000000" fill-opacity="1.000000" fill-rule="nonzero"/>
	</g>
	<g opacity="0.300000">
		<path id="Vector" d="M710.11 468.86C710.11 470.12 709.74 471.35 709.05 472.4C708.35 473.45 707.36 474.27 706.2 474.75C705.03 475.24 703.75 475.37 702.52 475.12C701.28 474.88 700.15 474.28 699.26 473.39C698.36 472.5 697.76 471.36 697.51 470.13C697.26 468.89 697.39 467.61 697.87 466.45C698.35 465.29 699.17 464.29 700.21 463.59C701.26 462.89 702.49 462.52 703.75 462.52C705.43 462.52 707.05 463.19 708.24 464.38C709.43 465.57 710.11 467.18 710.11 468.86Z" fill="#000000" fill-opacity="1.000000" fill-rule="nonzero"/>
	</g>
	<g opacity="0.300000">
		<path id="Vector" d="M1035.48 468.86C1035.48 470.12 1035.1 471.35 1034.41 472.39C1033.71 473.43 1032.72 474.25 1031.56 474.73C1030.4 475.21 1029.12 475.33 1027.89 475.09C1026.66 474.84 1025.53 474.24 1024.64 473.35C1023.76 472.46 1023.15 471.33 1022.91 470.1C1022.66 468.87 1022.79 467.6 1023.27 466.44C1023.75 465.28 1024.56 464.29 1025.61 463.59C1026.65 462.89 1027.88 462.52 1029.13 462.52C1029.96 462.52 1030.79 462.68 1031.56 463C1032.32 463.32 1033.03 463.79 1033.62 464.38C1034.21 464.97 1034.67 465.67 1034.99 466.44C1035.31 467.21 1035.48 468.03 1035.48 468.86Z" fill="#000000" fill-opacity="1.000000" fill-rule="nonzero"/>
	</g>
	<g opacity="0.300000">
		<path id="Vector" d="M1158 385.73L556.25 385.73C547.89 385.73 539.83 388.88 533.69 394.55C527.55 400.23 523.77 408.01 523.1 416.34C525.11 412.41 534.7 396.73 559.69 395.41C588.29 393.91 836.65 395.41 836.65 395.41C836.65 395.41 847.51 395.41 851.61 401.84L851.61 404.06C851.77 403.63 851.95 403.2 852.16 402.79C852.37 403.2 852.56 403.62 852.71 404.06L852.71 401.89C856.92 395.42 868.16 395.41 868.16 395.41C868.16 395.41 1124.11 393.91 1153.56 395.41C1178.71 396.69 1188.69 411.64 1191.11 416.03C1190.37 407.75 1186.56 400.06 1180.43 394.45C1174.31 388.84 1166.3 385.73 1158 385.73Z" fill="#FFFFFF" fill-opacity="1.000000" fill-rule="nonzero"/>
	</g>
	<path id="Vector" d="M1083.59 429.74C1107.06 426.44 1197.4 442.97 1218.48 453.78C1214.5 499.11 1200.5 543 1177.49 582.26C1173.96 588.16 1169.91 594.33 1163.39 596.66C1156.87 598.98 1149.41 596.74 1142.75 594.37C1109.6 582.5 1077.09 568.94 1045.34 553.72C1050.68 510.47 1063.64 468.49 1083.59 429.74Z" fill="#ED564A" fill-opacity="1.000000" fill-rule="nonzero"/>
	<g opacity="0.600000">
		<path id="Vector" d="M1083.59 429.74C1107.06 426.44 1197.4 442.97 1218.48 453.78C1214.5 499.11 1200.5 543 1177.49 582.26C1173.96 588.16 1169.91 594.33 1163.39 596.66C1156.87 598.98 1149.41 596.74 1142.75 594.37C1109.6 582.5 1077.09 568.94 1045.34 553.72C1050.68 510.47 1063.64 468.49 1083.59 429.74Z" fill="#FFFFFF" fill-opacity="1.000000" fill-rule="nonzero"/>
	</g>
	<g opacity="0.300000">
		<path id="Vector" d="M1214.82 481.17L1107.81 485.8L1073.61 450.71L1063.34 476.94L1097.51 513.45L1207.78 511.44C1207.78 511.44 1214.53 487.81 1214.82 481.17Z" fill="#FFFFFF" fill-opacity="1.000000" fill-rule="nonzero"/>
	</g>
	<g opacity="0.300000">
		<path id="Vector" d="M1194.78 445.78C1195.34 445.95 1117.78 456.49 1117.78 456.49L1095.82 429.32C1095.82 429.32 1149.19 431.32 1194.78 445.78Z" fill="#FFFFFF" fill-opacity="1.000000" fill-rule="nonzero"/>
	</g>
	<g opacity="0.300000">
		<path id="Vector" d="M1193.39 551.17L1089.77 553.74L1052.15 515.64L1045.43 546.62L1059.94 560.47L1102.85 579.03L1179.31 579.03C1179.31 579.03 1190 559.21 1193.39 551.17Z" fill="#FFFFFF" fill-opacity="1.000000" fill-rule="nonzero"/>
	</g>
	<path id="Vector" d="M1212.07 456.49C1182.86 494.95 1165.57 541.15 1162.4 589.34" stroke="#263238" stroke-opacity="1.000000" stroke-width="1.762417" stroke-linejoin="round" stroke-linecap="round"/>
	<g opacity="0.300000">
		<path id="Vector" d="M1068.71 462.52C1068.71 462.52 1114.93 461.06 1121.37 467.12C1127.81 473.18 1108.77 581.48 1108.77 581.48L1050.49 559.03C1050.49 559.03 1057.68 477.59 1068.71 462.52Z" fill="#000000" fill-opacity="1.000000" fill-rule="nonzero"/>
	</g>
	<path id="Vector" d="M991.55 477.15C1010.11 470.1 1087.06 466.57 1106.31 471.51C1111.56 509.3 1108.36 547.79 1096.93 584.2C1095.17 589.68 1092.98 595.49 1088.12 598.61C1083.25 601.73 1076.69 601.29 1070.81 600.6C1041.49 597.12 1012.38 592.14 983.57 585.66C979.82 549.3 982.52 512.57 991.55 477.15Z" fill="#ED564A" fill-opacity="1.000000" fill-rule="nonzero"/>
	<g opacity="0.600000">
		<path id="Vector" d="M991.55 477.15C1010.11 470.1 1087.06 466.57 1106.31 471.51C1111.56 509.3 1108.36 547.79 1096.93 584.2C1095.17 589.68 1092.98 595.49 1088.12 598.61C1083.25 601.73 1076.69 601.29 1070.81 600.6C1041.49 597.12 1012.38 592.14 983.57 585.66C979.82 549.3 982.52 512.57 991.55 477.15Z" fill="#FFFFFF" fill-opacity="1.000000" fill-rule="nonzero"/>
	</g>
	<g opacity="0.300000">
		<path id="Vector" d="M1108.42 494.59L1021.82 518.48L987.34 496.23L983.81 519.59L1018.61 543.04L1108.42 520.7C1108.42 520.7 1109.46 500.06 1108.42 494.59Z" fill="#FFFFFF" fill-opacity="1.000000" fill-rule="nonzero"/>
	</g>
	<g opacity="0.300000">
		<path id="Vector" d="M1085.51 469.45C1086 469.45 1024.56 492.64 1024.56 492.64L1001.55 474.54C1001.55 474.54 1045.49 466.2 1085.51 469.45Z" fill="#FFFFFF" fill-opacity="1.000000" fill-rule="nonzero"/>
	</g>
	<g opacity="0.300000">
		<path id="Vector" d="M1104.09 555.89L1019.88 577.45L981.96 553.37L982.3 579.95L996.77 588.53L1035.31 595.67L1097.85 581.31C1097.85 581.31 1102.81 563.05 1104.09 555.89Z" fill="#FFFFFF" fill-opacity="1.000000" fill-rule="nonzero"/>
	</g>
	<path id="Vector" d="M1101.6 474.94C1084.92 511.86 1079.47 552.86 1085.92 592.85" stroke="#263238" stroke-opacity="1.000000" stroke-width="1.762417" stroke-linejoin="round" stroke-linecap="round"/>
	<path id="Vector" d="M635.79 441.04C616.12 438.29 540.35 452.14 522.68 461.2C526.01 499.21 537.75 536.01 557.05 568.93C559.95 573.89 563.41 579.07 568.82 581.02C574.23 582.98 580.54 581.02 586.11 579.1C613.91 569.15 641.18 557.76 667.81 545C663.35 508.73 652.51 473.53 635.79 441.04Z" fill="#ED564A" fill-opacity="1.000000" fill-rule="nonzero"/>
	<g opacity="0.600000">
		<path id="Vector" d="M635.79 441.04C616.12 438.29 540.35 452.14 522.68 461.2C526.01 499.21 537.75 536.01 557.05 568.93C559.95 573.89 563.41 579.07 568.82 581.02C574.23 582.98 580.54 581.02 586.11 579.1C613.91 569.15 641.18 557.76 667.81 545C663.35 508.73 652.51 473.53 635.79 441.04Z" fill="#FFFFFF" fill-opacity="1.000000" fill-rule="nonzero"/>
	</g>
	<g opacity="0.300000">
		<path id="Vector" d="M525.73 484.2L615.49 488.09L644.16 458.68L652.78 480.67L624.12 511.3L531.65 509.54C531.65 509.54 525.99 489.73 525.73 484.2Z" fill="#FFFFFF" fill-opacity="1.000000" fill-rule="nonzero"/>
	</g>
	<g opacity="0.300000">
		<path id="Vector" d="M542.54 454.48C542.06 454.64 607.12 463.47 607.12 463.47L625.52 440.68C625.52 440.68 580.77 442.39 542.54 454.48Z" fill="#FFFFFF" fill-opacity="1.000000" fill-rule="nonzero"/>
	</g>
	<g opacity="0.300000">
		<path id="Vector" d="M543.72 542.92L630.63 545.09L662.17 513.14L667.81 539.11L655.63 550.73L619.66 566.29L555.51 566.29C555.51 566.29 546.56 549.6 543.72 542.92Z" fill="#FFFFFF" fill-opacity="1.000000" fill-rule="nonzero"/>
	</g>
	<path id="Vector" d="M528.04 463.47C552.55 495.72 567.04 534.46 569.72 574.87" stroke="#263238" stroke-opacity="1.000000" stroke-width="1.762417" stroke-linejoin="round" stroke-linecap="round"/>
	<path id="Vector" d="M1270.06 672.41C1265.01 671.96 1260.25 669.79 1256.59 666.27C1252.93 662.75 1249.96 658.61 1247.78 654.04C1241.72 642.04 1238.81 628.7 1239.37 615.27C1239.36 612.39 1239.91 609.54 1241.01 606.88C1241.56 605.54 1242.43 604.36 1243.54 603.43C1244.66 602.51 1245.99 601.88 1247.41 601.59C1251.65 600.97 1255.35 604.36 1257.98 607.69C1270.28 623.02 1276.43 642.39 1275.23 662.01C1274.93 666.75 1273.35 671.33 1269.94 672.35L1270.06 672.41Z" fill="#ED564A" fill-opacity="1.000000" fill-rule="nonzero"/>
	<path id="Vector" d="M1298.06 633.23C1293.39 622.94 1292.68 611.29 1296.06 600.52C1299.5 589.84 1305.68 580.24 1313.99 572.71C1322.91 564.33 1334.38 557.9 1346.61 557.85C1351.9 557.85 1357.49 559.21 1360.71 563.33C1363.94 567.45 1363.85 573.9 1362.35 579.3C1359.65 588.02 1354.9 595.97 1348.5 602.49C1342.11 608.98 1335.2 614.93 1327.84 620.29C1319.72 626.53 1310.94 633 1300.72 633.79L1298.06 633.23Z" fill="#ED564A" fill-opacity="1.000000" fill-rule="nonzero"/>
	<path id="Vector" d="M1298.76 667.15C1300.21 655.86 1308.97 646.52 1319.24 641.58C1329.52 636.65 1341.13 635.43 1352.5 634.87C1355.02 634.6 1357.58 634.78 1360.04 635.39C1361.27 635.72 1362.39 636.34 1363.31 637.21C1364.24 638.08 1364.93 639.16 1365.33 640.36C1366.19 643.57 1364.15 646.8 1362.03 649.35C1355.73 656.81 1347.84 662.77 1338.95 666.79C1330.05 670.82 1320.37 672.82 1310.61 672.63C1308.35 672.68 1306.1 672.3 1303.98 671.52C1302.92 671.13 1301.96 670.51 1301.17 669.7C1300.39 668.89 1299.79 667.92 1299.42 666.85L1298.76 667.15Z" fill="#ED564A" fill-opacity="1.000000" fill-rule="nonzero"/>
	<path id="Vector" d="M1247.65 609.15C1259.26 637.5 1268.54 666.75 1275.39 696.6C1277.31 705.02 1279.06 713.47 1280.68 721.96C1280.81 722.79 1282.11 722.44 1281.94 721.61C1276.46 691.47 1268.53 661.82 1258.23 632.96C1255.31 624.83 1252.23 616.78 1248.96 608.8C1248.64 608.02 1247.35 608.36 1247.68 609.15L1247.65 609.15Z" fill="#FFFFFF" fill-opacity="1.000000" fill-rule="nonzero"/>
	<path id="Vector" d="M1286.21 708.43C1285.54 687.97 1287.17 667.33 1292.91 647.61C1298.54 628.05 1308.44 609.99 1321.92 594.74C1330.59 585.07 1340.42 576.51 1351.18 569.23C1351.88 568.76 1351.18 567.61 1350.52 568.09C1332.05 580.39 1316.54 596.64 1305.12 615.67C1295.16 633.21 1288.8 652.57 1286.42 672.6C1284.93 684.48 1284.43 696.46 1284.89 708.43C1284.92 708.59 1285 708.73 1285.12 708.83C1285.24 708.93 1285.39 708.99 1285.55 708.99C1285.71 708.99 1285.87 708.93 1285.99 708.83C1286.11 708.73 1286.18 708.59 1286.21 708.43Z" fill="#FFFFFF" fill-opacity="1.000000" fill-rule="nonzero"/>
	<path id="Vector" d="M1286.87 680.14C1303.13 661.27 1325.36 648.54 1349.87 644.08C1350.7 643.94 1350.35 642.65 1349.52 642.81C1324.84 647.36 1302.46 660.2 1286.06 679.21C1285.53 679.86 1286.46 680.79 1287.01 680.14L1286.87 680.14Z" fill="#FFFFFF" fill-opacity="1.000000" fill-rule="nonzero"/>
	<path id="Vector" d="M1322.63 723.13L1322.63 698.68L1254.49 698.68L1254.49 723.13C1254.49 723.13 1253.18 766.36 1277.21 770.29L1299.91 770.29C1323.93 766.36 1322.63 723.13 1322.63 723.13Z" fill="#ED564A" fill-opacity="1.000000" fill-rule="nonzero"/>
	<g opacity="0.500000">
		<path id="Vector" d="M1322.63 723.13L1322.63 698.68L1254.49 698.68L1254.49 723.13C1254.49 723.13 1253.18 766.36 1277.21 770.29L1299.91 770.29C1323.93 766.36 1322.63 723.13 1322.63 723.13Z" fill="#ED564A" fill-opacity="1.000000" fill-rule="nonzero"/>
	</g>
	<path id="Vector" d="M812.93 460.51L812.93 583.09C812.96 583.24 813.04 583.39 813.16 583.49C813.28 583.59 813.43 583.65 813.59 583.65C813.75 583.65 813.9 583.59 814.02 583.49C814.15 583.39 814.23 583.24 814.25 583.09L814.25 460.51C814.23 460.35 814.15 460.21 814.02 460.11C813.9 460 813.75 459.95 813.59 459.95C813.43 459.95 813.28 460 813.16 460.11C813.04 460.21 812.96 460.35 812.93 460.51Z" fill="#263238" fill-opacity="1.000000" fill-rule="nonzero"/>
	<path id="Vector" d="M824.65 443.29C824.65 458.09 819.7 470.08 813.58 470.08C807.47 470.08 802.52 458.09 802.52 443.29C802.52 428.5 807.47 416.5 813.58 416.5C819.7 416.5 824.65 428.5 824.65 443.29Z" fill="#ED564A" fill-opacity="1.000000" fill-rule="evenodd"/>
	<g opacity="0.300000">
		<path id="Vector" d="M824.65 443.29C824.65 458.09 819.7 470.08 813.58 470.08C807.47 470.08 802.52 458.09 802.52 443.29C802.52 428.5 807.47 416.5 813.58 416.5C819.7 416.5 824.65 428.5 824.65 443.29Z" fill="#000000" fill-opacity="1.000000" fill-rule="evenodd"/>
	</g>
	<path id="Vector" d="M800.45 492.18L808.91 531.61C810.25 537.88 811.6 544.15 812.95 550.41C813.12 551.24 814.41 550.9 814.22 550.06L805.76 510.63C804.42 504.37 803.07 498.1 801.72 491.83C801.55 491 800.28 491.35 800.45 492.18Z" fill="#263238" fill-opacity="1.000000" fill-rule="nonzero"/>
	<path id="Vector" d="M807.26 483.77C809.83 495.76 807.89 506.35 802.94 507.41C797.99 508.47 791.89 499.62 789.31 487.62C786.74 475.61 788.66 465.04 793.61 463.98C798.57 462.92 804.68 471.86 807.26 483.77Z" fill="#ED564A" fill-opacity="1.000000" fill-rule="nonzero"/>
	<g opacity="0.300000">
		<path id="Vector" d="M807.26 483.77C809.83 495.76 807.89 506.35 802.94 507.41C797.99 508.47 791.89 499.62 789.31 487.62C786.74 475.61 788.66 465.04 793.61 463.98C798.57 462.92 804.68 471.86 807.26 483.77Z" fill="#000000" fill-opacity="1.000000" fill-rule="nonzero"/>
	</g>
	<path id="Vector" d="M826.43 484.46L820.61 524.36C819.7 530.71 818.78 537.06 817.85 543.41C817.72 544.24 818.99 544.59 819.12 543.77L824.93 503.87C825.86 497.5 826.79 491.15 827.72 484.81C827.82 483.99 826.55 483.63 826.43 484.46Z" fill="#263238" fill-opacity="1.000000" fill-rule="nonzero"/>
	<path id="Vector" d="M838.77 486.88C837.01 499.21 831.42 508.47 826.43 507.73C821.44 506.98 818.71 496.45 820.49 484.2C822.27 471.95 827.84 462.61 832.83 463.35C837.82 464.09 840.53 474.61 838.77 486.88Z" fill="#ED564A" fill-opacity="1.000000" fill-rule="nonzero"/>
	<g opacity="0.300000">
		<path id="Vector" d="M838.77 486.88C837.01 499.21 831.42 508.47 826.43 507.73C821.44 506.98 818.71 496.45 820.49 484.2C822.27 471.95 827.84 462.61 832.83 463.35C837.82 464.09 840.53 474.61 838.77 486.88Z" fill="#000000" fill-opacity="1.000000" fill-rule="nonzero"/>
	</g>
	<path id="Vector" d="M837.92 602.38C831.21 581.52 824.88 559.93 824.88 559.93C824.88 559.93 824.47 535.78 824.88 534.74L806.6 534.74C807.01 535.78 806.6 559.93 806.6 559.93C806.6 559.93 800.28 581.52 793.56 602.38C786.42 624.54 788.82 644.14 793.56 652.4C797.31 658.96 804.77 661.83 812.61 662.98L818.87 662.98C826.71 661.88 834.17 659.01 837.92 652.4C842.66 644.14 845.06 624.54 837.92 602.38Z" fill="#ED564A" fill-opacity="1.000000" fill-rule="nonzero"/>
	<g opacity="0.700000">
		<path id="Vector" d="M837.92 602.38C831.21 581.52 824.88 559.93 824.88 559.93C824.88 559.93 824.47 535.78 824.88 534.74L806.6 534.74C807.01 535.78 806.6 559.93 806.6 559.93C806.6 559.93 800.28 581.52 793.56 602.38C786.42 624.54 788.82 644.14 793.56 652.4C797.31 658.96 804.77 661.83 812.61 662.98L818.87 662.98C826.71 661.88 834.17 659.01 837.92 652.4C842.66 644.14 845.06 624.54 837.92 602.38Z" fill="#FFFFFF" fill-opacity="1.000000" fill-rule="nonzero"/>
	</g>
	<g opacity="0.300000">
		<path id="Vector" d="M826.11 564.1C826.11 564.1 814.73 594.77 807.34 607.62C798.76 622.49 789.98 641.35 789.98 641.35C789.98 641.35 791.43 656.3 801.09 659.45C801.09 659.45 796.15 642.51 803.64 626.37C811.13 610.23 834.1 590.33 834.1 590.33L826.11 564.1Z" fill="#FFFFFF" fill-opacity="1.000000" fill-rule="nonzero"/>
	</g>
	<path id="Vector" d="M721.36 658.98L968.38 658.98L968.38 679.05L721.36 679.05L721.36 658.98Z" fill="#B97964" fill-opacity="1.000000" fill-rule="evenodd"/>
	<path id="Vector" d="M760.13 668.05C760.62 671.38 727.15 805.33 727.15 805.33L732 805.33L774.69 668.05L760.13 668.05Z" fill="#B97964" fill-opacity="1.000000" fill-rule="nonzero"/>
	<path id="Vector" d="M939.63 668.05C939.23 671.38 972.71 805.33 972.71 805.33L967.85 805.33L925.13 668.05L939.63 668.05Z" fill="#B97964" fill-opacity="1.000000" fill-rule="nonzero"/>
	<path id="Vector" d="M854.63 668.62C854.15 671.95 846.17 806.81 846.17 806.81L841.32 806.81L840.09 668.62L854.63 668.62Z" fill="#B97964" fill-opacity="1.000000" fill-rule="nonzero"/>
	<g opacity="0.300000">
		<path id="Vector" d="M757.94 679.03L771.27 679.03L769.24 685.55C769.24 685.55 756.45 685.71 756.45 685.55C756.45 685.39 757.94 679.03 757.94 679.03Z" fill="#000000" fill-opacity="1.000000" fill-rule="nonzero"/>
	</g>
	<g opacity="0.300000">
		<path id="Vector" d="M840.16 679.05L840.23 686.1L853.43 686.1L853.89 679.05L840.16 679.05Z" fill="#000000" fill-opacity="1.000000" fill-rule="nonzero"/>
	</g>
	<g opacity="0.300000">
		<path id="Vector" d="M928.49 679.05L930.7 686.1L943.46 686.1L941.83 679.05L928.49 679.05Z" fill="#000000" fill-opacity="1.000000" fill-rule="nonzero"/>
	</g>
	<path id="Vector" d="M774.63 103.97L943.45 103.97L943.45 340.98L774.63 340.98L774.63 103.97Z" fill="#B97964" fill-opacity="1.000000" fill-rule="evenodd"/>
	<path id="Vector" d="M782.9 112.31L935.17 112.31L935.17 331.1L782.9 331.1L782.9 112.31Z" fill="#FFFFFF" fill-opacity="1.000000" fill-rule="evenodd"/>
	<path id="Vector" d="M816.82 153.81L904.22 153.81L904.22 289.57L816.82 289.57L816.82 153.81Z" fill="#ED564A" fill-opacity="1.000000" fill-rule="evenodd"/>
	<path id="Vector" d="M852.87 155.7C846.89 163.3 840.53 170.93 837.67 180.37C835.09 189.48 835.66 199.2 839.3 207.94C840.94 212.11 843.46 215.88 846.69 218.99C849.92 222.1 853.78 224.48 858.01 225.97C862.1 227.42 866.49 227.86 870.78 227.24C875.08 226.63 879.17 224.98 882.69 222.44C889.74 217.01 893.35 206.58 887.34 199C882.25 192.6 872.98 191.16 865.38 192.71C856.24 194.85 848.15 200.16 842.56 207.69C836.46 216.08 832.72 225.94 831.72 236.26C831.03 241.69 830.36 247.77 831.81 253.13C832.46 255.52 833.71 257.71 835.44 259.48C837.18 261.25 839.33 262.55 841.71 263.26C853.04 266.93 863.62 259.21 874.91 260.23L872.68 258.01L872.57 289.08C872.57 289.67 872.81 290.24 873.23 290.66C873.65 291.08 874.22 291.32 874.81 291.32C875.4 291.32 875.97 291.08 876.39 290.66C876.81 290.24 877.05 289.67 877.05 289.08L877.15 258.01C877.14 257.42 876.9 256.86 876.48 256.44C876.06 256.02 875.5 255.78 874.91 255.77C865.57 254.91 857.1 260.14 847.83 259.79C844.38 259.85 841.04 258.59 838.48 256.26C835.52 253.21 835.44 248.61 835.54 244.65C836 227.43 842.08 208.75 858.15 200.13C864.46 196.75 872.39 195.18 879.14 198.26C880.67 198.88 882.04 199.82 883.17 201.02C884.29 202.23 885.14 203.66 885.65 205.22C886.07 207.16 886.03 209.16 885.53 211.07C885.04 212.99 884.1 214.76 882.79 216.24C878.09 222.04 870.02 223.92 862.89 222.55C859.14 221.81 855.6 220.25 852.52 217.98C849.44 215.71 846.91 212.79 845.09 209.42C840.75 201.43 839.49 192.12 841.57 183.26C843.83 173.84 850.21 166.27 856.07 158.82C857.84 156.58 854.68 153.39 852.9 155.66L852.87 155.7Z" fill="#FFFFFF" fill-opacity="1.000000" fill-rule="nonzero"/>
	<g opacity="0.200000">
		<path id="Vector" d="M786.37 331.1L786.37 117.31L935.19 117.31L935.19 112.31L782.9 112.31L782.9 331.1L786.37 331.1Z" fill="#000000" fill-opacity="1.000000" fill-rule="nonzero"/>
	</g>
	<g opacity="0.500000">
		<path id="Vector" d="M817.21 135.11L854.03 135.11C863.35 135.11 870.9 142.67 870.9 151.98L870.9 188.8C870.9 198.11 863.35 205.66 854.03 205.66L817.21 205.66C807.9 205.66 800.35 198.11 800.35 188.8L800.35 151.98C800.35 142.67 807.9 135.11 817.21 135.11Z" fill="#FFFFFF" fill-opacity="1.000000" fill-rule="evenodd"/>
	</g>
	<path id="Vector" d="M1555.26 782.88L1580.36 809.75L1607.58 790.06L1583.24 760L1555.26 782.88Z" fill="#E6B7A3" fill-opacity="1.000000" fill-rule="nonzero"/>
	<path id="Vector" d="M1393.75 438.43C1393.75 438.43 1404.51 581.87 1425.22 615.45C1444.53 646.62 1538.28 771.89 1550.85 788.69C1551.27 789.26 1551.87 789.67 1552.54 789.88C1553.22 790.08 1553.94 790.06 1554.6 789.83C1560.36 787.79 1576.03 780.79 1593.44 760.53C1593.94 759.92 1594.21 759.17 1594.21 758.39C1594.21 757.61 1593.94 756.85 1593.44 756.25C1589.28 751.13 1583.63 747.43 1577.27 745.68C1577.27 745.68 1572.7 728.66 1563.61 723.75C1550.04 706.22 1538.27 687.37 1528.5 667.47C1514.52 637.77 1507.02 616.9 1492.91 601.87C1478.8 586.83 1492.91 494.65 1461.71 418.48L1393.75 438.43Z" fill="#CC8E4F" fill-opacity="1.000000" fill-rule="nonzero"/>
	<path id="Vector" d="M1600.5 782.53C1600.5 782.53 1616.72 778.39 1632.76 804.28C1622.94 814.33 1612.21 823.45 1600.71 831.52C1582.08 845.1 1545.62 866.9 1540.63 865.65C1535.63 864.41 1531.54 849.14 1541.95 837.81C1552.36 826.47 1575.95 805.05 1575.95 805.05C1575.95 805.05 1598.33 800.4 1600.5 782.53Z" fill="#496678" fill-opacity="1.000000" fill-rule="nonzero"/>
	<path id="Vector" d="M1596.53 823.72C1578.86 836.54 1545.96 856.46 1536.11 859.23C1537.01 862.75 1538.75 865.21 1540.63 865.65C1545.62 866.9 1582.08 845.1 1600.71 831.52C1612.21 823.45 1622.94 814.33 1632.76 804.28C1631.3 801.96 1629.74 799.72 1628.05 797.57C1618.18 807.02 1607.65 815.76 1596.53 823.72Z" fill="#30434F" fill-opacity="1.000000" fill-rule="nonzero"/>
	<path id="Vector" d="M1440.86 829.3L1447.89 865.36L1481.45 863.07L1476.66 824.68L1440.86 829.3Z" fill="#FECAB4" fill-opacity="1.000000" fill-rule="nonzero"/>
	<path id="Vector" d="M1430.61 432.91C1430.61 432.91 1419.3 579.01 1419.17 618.35C1419.17 655.03 1432.38 810.91 1434.07 831.84C1434.12 832.55 1434.41 833.23 1434.89 833.76C1435.37 834.29 1436.01 834.65 1436.71 834.77C1442.66 836.12 1459.67 838.47 1485.17 830.49C1485.92 830.24 1486.56 829.74 1486.97 829.08C1487.39 828.41 1487.57 827.62 1487.47 826.84C1486.62 820.34 1483.78 814.25 1479.33 809.43C1479.33 809.43 1484.46 792.57 1479.33 783.59C1477.1 761.54 1477.1 739.32 1479.33 717.27C1483.19 684.67 1483.32 643.08 1479.33 622.85C1475.34 602.61 1508.39 516.45 1501.55 434.41L1430.61 432.91Z" fill="#FCAF62" fill-opacity="1.000000" fill-rule="nonzero"/>
	<path id="Vector" d="M1477.64 439.78C1477.64 439.78 1465.91 479.41 1494.44 482.5" fill="#FFFFFF" fill-opacity="1.000000" fill-rule="nonzero"/>
	<path id="Vector" d="M1477.64 439.78C1477.64 439.78 1465.91 479.41 1494.44 482.5" stroke="#000000" stroke-opacity="1.000000" stroke-width="2.272202"/>
	<path id="Vector" d="M1479.41 852.95C1479.41 852.95 1495.26 858.02 1495.26 888.46C1481.61 891.79 1467.68 893.84 1453.65 894.59C1430.66 896.28 1388.21 895.46 1384.61 891.78C1381.02 888.11 1385.64 872.95 1400.46 868.85C1415.29 864.76 1446.65 859.05 1446.65 859.05C1446.65 859.05 1468.18 866.84 1479.41 852.95Z" fill="#496678" fill-opacity="1.000000" fill-rule="nonzero"/>
	<path id="Vector" d="M1454.23 885.79C1432.46 887.32 1393.99 886.79 1384.16 883.94C1383.08 887.37 1383.26 890.38 1384.61 891.86C1388.21 895.54 1430.66 896.36 1453.65 894.67C1467.68 893.92 1481.61 891.87 1495.26 888.54C1495.26 885.81 1495.11 883.08 1494.81 880.37C1481.43 883.13 1467.87 884.94 1454.23 885.79Z" fill="#30434F" fill-opacity="1.000000" fill-rule="nonzero"/>
	<path id="Vector" d="M1431.24 175.67C1431.24 175.67 1447.1 169.44 1455.68 171.76C1464.27 174.09 1488.26 176.52 1516.45 190.89C1541.53 203.65 1552.54 246.51 1557.22 273.06L1504.75 288.09C1504.75 288.09 1498.51 338.85 1504.75 358.35C1508.43 371.04 1508.97 384.45 1506.31 397.4C1511.43 410.87 1513.57 425.29 1512.57 439.67C1512.57 439.67 1449.71 457.61 1383.53 439.67C1383.53 439.67 1381.89 418.53 1389.05 406.85C1389.05 406.85 1380.33 390.47 1389.05 380.43C1389.05 380.43 1386.57 314.86 1389.05 283.63L1349.5 252.95C1354.04 238.37 1359.88 224.22 1366.96 210.68C1377.5 191.29 1400.41 175.67 1431.24 175.67Z" fill="#5C7F94" fill-opacity="1.000000" fill-rule="nonzero"/>
	<path id="Vector" d="M1499.81 285.19L1502.74 315.65C1503.45 299.35 1505.2 285.13 1505.2 285.13C1505.2 285.13 1496.24 250.2 1492.41 246.4C1488.58 242.6 1499.81 285.19 1499.81 285.19Z" fill="#496678" fill-opacity="1.000000" fill-rule="nonzero"/>
	<path id="Vector" d="M1472.41 182.73C1472.41 187.75 1459.49 191.81 1443.58 191.81C1427.68 191.81 1414.76 187.75 1414.76 182.73C1414.76 177.71 1427.65 173.66 1443.58 173.66C1459.51 173.66 1472.41 177.71 1472.41 182.73Z" fill="#496678" fill-opacity="1.000000" fill-rule="nonzero"/>
	<path id="Vector" d="M1387.97 318.61C1391 292.79 1399.28 225.47 1393.75 230.23C1388.23 234.99 1389.13 283.42 1389.13 283.42L1388.05 318.61L1387.97 318.61Z" fill="#496678" fill-opacity="1.000000" fill-rule="nonzero"/>
	<path id="Vector" d="M1409.84 371.64C1435.63 370.37 1452.49 367.33 1458.88 371.64C1465.28 375.94 1440.18 374.96 1421.65 375.94C1403.13 376.92 1400.33 372.08 1409.84 371.64Z" fill="#496678" fill-opacity="1.000000" fill-rule="nonzero"/>
	<path id="Vector" d="M1410.27 386.51C1435.58 387.38 1452.22 386.51 1458.3 389.73C1464.38 392.96 1439.8 390.66 1421.65 390.05C1403.5 389.44 1401.02 386.19 1410.27 386.51Z" fill="#496678" fill-opacity="1.000000" fill-rule="nonzero"/>
	<path id="Vector" d="M1418.4 125.1C1418.4 125.1 1429.29 143.31 1420.78 180.98C1420.65 181.49 1420.69 182.02 1420.9 182.5C1421.1 182.97 1421.46 183.37 1421.92 183.62C1426.52 186.27 1441.47 192.34 1465.91 183.28C1466.36 183.11 1466.75 182.81 1467.02 182.41C1467.29 182.01 1467.44 181.54 1467.44 181.06C1467.28 171.81 1465.88 126.13 1452.36 109.14L1418.4 125.1Z" fill="#FECAB4" fill-opacity="1.000000" fill-rule="nonzero"/>
	<path id="Vector" d="M1422.98 168.93C1441.15 167.16 1455.76 153.08 1461.87 131.65C1459.67 122.64 1456.58 114.45 1452.36 109.12L1418.41 125.15C1418.41 125.15 1426.97 139.39 1422.98 168.93Z" fill="#DBAF9B" fill-opacity="1.000000" fill-rule="nonzero"/>
	<path id="Vector" d="M1467.39 62.56C1467.39 62.56 1471.75 49.93 1481.66 54.21C1493.04 59.15 1489.21 103.99 1467.34 92.13L1467.39 62.56Z" fill="#FECAB4" fill-opacity="1.000000" fill-rule="nonzero"/>
	<path id="Vector" d="M1471.46 62.48C1471.88 60.72 1472.93 59.17 1474.42 58.12C1475.26 57.55 1476.25 57.22 1477.27 57.17C1478.29 57.14 1479.3 57.34 1480.23 57.75C1481.11 58.2 1481.88 58.82 1482.49 59.59C1483.11 60.35 1483.55 61.24 1483.8 62.19C1484.3 63.92 1484.3 65.75 1483.8 67.48C1483.29 65.95 1482.66 64.47 1481.92 63.04C1481.29 61.83 1480.32 60.85 1479.12 60.21C1478.55 59.92 1477.93 59.75 1477.29 59.72C1476.65 59.69 1476.02 59.79 1475.42 60.03C1473.97 60.62 1472.63 61.45 1471.46 62.48Z" fill="#BF9987" fill-opacity="1.000000" fill-rule="nonzero"/>
	<path id="Vector" d="M1472.07 61.56C1473.99 63.01 1475.35 65.1 1475.9 67.45C1476.21 68.67 1476.35 69.92 1476.32 71.18C1476.29 72.39 1476.13 73.59 1475.84 74.77L1475.29 73.4C1476.08 73.96 1476.75 74.68 1477.25 75.51C1477.79 76.36 1478.07 77.35 1478.04 78.36C1477.98 79.34 1477.59 80.28 1476.93 81C1476.34 81.64 1475.63 82.14 1474.84 82.48C1475.29 81.84 1475.67 81.15 1475.98 80.42C1476.23 79.81 1476.29 79.14 1476.16 78.49C1476.04 77.89 1475.76 77.33 1475.34 76.88C1474.92 76.4 1474.43 75.97 1473.89 75.61L1473.18 75.11L1473.36 74.24C1474.27 69.98 1473.82 65.55 1472.07 61.56Z" fill="#BF9987" fill-opacity="1.000000" fill-rule="nonzero"/>
	<path id="Vector" d="M1445.72 23.17C1412.43 -4.36 1371.75 26.58 1371.98 57.52C1372.22 88.46 1392.12 153.66 1420.02 156.78C1447.92 159.9 1469.85 135.51 1470.72 98.47C1471.54 64.57 1462.1 36.83 1445.72 23.17Z" fill="#FECAB4" fill-opacity="1.000000" fill-rule="nonzero"/>
	<path id="Vector" d="M1392.59 79.87C1393.38 83.33 1392.59 86.42 1391.03 86.76C1389.47 87.11 1387.44 84.65 1386.65 81.19C1385.85 77.73 1386.65 74.66 1388.23 74.29C1389.82 73.92 1391.77 76.46 1392.59 79.87Z" fill="#574943" fill-opacity="1.000000" fill-rule="nonzero"/>
	<path id="Vector" d="M1434.47 70.54C1435.24 74 1434.47 77.09 1432.91 77.44C1431.35 77.78 1429.29 75.32 1428.52 71.86C1427.76 68.4 1428.52 65.34 1430.11 64.97C1431.69 64.6 1433.7 67.11 1434.47 70.54Z" fill="#574943" fill-opacity="1.000000" fill-rule="nonzero"/>
	<path id="Vector" d="M1409.98 84.39C1410.86 87.47 1410.86 90.74 1409.98 93.82C1409.13 97.03 1407.28 99.89 1404.69 101.98C1403.58 102.72 1402.68 103.72 1402.05 104.89C1401.84 105.4 1401.79 105.96 1401.9 106.5C1402.01 107.04 1402.27 107.54 1402.66 107.93C1403.63 108.94 1404.93 109.56 1406.33 109.69C1407.73 109.83 1409.12 109.45 1410.27 108.64C1409.74 109.31 1409.09 109.87 1408.34 110.27C1407.59 110.68 1406.76 110.93 1405.92 111C1405.07 111.07 1404.21 110.96 1403.41 110.69C1402.6 110.42 1401.86 109.98 1401.23 109.41C1400.48 108.78 1399.93 107.94 1399.66 107C1399.39 106.06 1399.4 105.06 1399.7 104.12C1400.39 102.48 1401.51 101.06 1402.95 100C1405.18 98.06 1406.96 95.66 1408.18 92.97C1409.39 90.27 1410 87.34 1409.98 84.39Z" fill="#BF9987" fill-opacity="1.000000" fill-rule="nonzero"/>
	<path id="Vector" d="M1415.55 123.73C1415.55 123.73 1441.15 119.58 1439.96 103.01" stroke="#B59180" stroke-opacity="1.000000" stroke-width="2.642095" stroke-linejoin="round" stroke-linecap="round"/>
	<path id="Vector" d="M1434.05 96.83C1434.05 96.83 1438.8 107.64 1447.94 99.66" stroke="#B59180" stroke-opacity="1.000000" stroke-width="2.642095" stroke-linejoin="round" stroke-linecap="round"/>
	<path id="Vector" d="M1419.54 59.08C1422.17 56.7 1425.44 55.13 1428.95 54.59C1432.45 54.04 1436.04 54.52 1439.28 55.98" stroke="#85615E" stroke-opacity="1.000000" stroke-width="2.642095" stroke-linejoin="round" stroke-linecap="round"/>
	<path id="Vector" d="M1378.56 70.83C1378.56 70.83 1383.18 60.45 1395.23 65.81" stroke="#85615E" stroke-opacity="1.000000" stroke-width="2.642095" stroke-linejoin="round" stroke-linecap="round"/>
	<path id="Vector" d="M1470.27 81.98C1463.05 84.62 1459.28 76.7 1456.61 62.88C1453.94 49.06 1449.9 30.73 1437.98 34.98C1426.07 39.23 1400.99 58.02 1367.01 54.4C1333.04 50.78 1335.89 14.05 1359.67 13.58C1383.45 13.1 1403.58 6.21 1426.94 0.61C1450.29 -5 1479.83 28.4 1470.27 81.98Z" fill="#85615E" fill-opacity="1.000000" fill-rule="nonzero"/>
	<path id="Vector" d="M1352.38 255.28C1352.38 255.28 1344.69 273.09 1335.34 297.29C1330.86 281.34 1325.05 265.8 1317.95 250.84C1308.97 231.39 1299.99 208.86 1299.99 208.86L1276 221.14C1276 221.14 1284.57 266.27 1296.29 306.09C1307.99 345.9 1332.54 357.34 1343.32 354.86C1362.26 350.47 1385.09 280.38 1385.09 280.38L1352.38 255.28Z" fill="#FECAB4" fill-opacity="1.000000" fill-rule="nonzero"/>
	<path id="Vector" d="M1330.37 344.77C1331.09 342.54 1332.61 340.66 1334.62 339.48C1335.7 338.88 1336.89 338.5 1338.11 338.37C1339.34 338.24 1340.58 338.36 1341.76 338.72C1342.99 339.07 1344.13 339.7 1345.11 340.54C1346.08 341.39 1346.86 342.43 1347.38 343.6C1347.89 344.84 1348.09 346.18 1347.95 347.5C1347.82 348.83 1347.36 350.1 1346.62 351.21C1345.87 352.37 1344.78 353.27 1343.51 353.8C1342.24 354.34 1340.84 354.47 1339.48 354.2C1338.14 353.91 1336.92 353.21 1336 352.19C1335.52 351.69 1335.15 351.09 1334.9 350.44C1334.65 349.79 1334.53 349.1 1334.55 348.41C1334.57 347.71 1334.73 347.03 1335.01 346.4C1335.3 345.76 1335.7 345.19 1336.21 344.71C1336.7 344.24 1337.3 343.88 1337.96 343.69C1338.62 343.5 1339.31 343.47 1339.99 343.6C1340.62 343.73 1341.21 344.01 1341.71 344.43C1342.2 344.84 1342.58 345.38 1342.81 345.98C1343.02 346.55 1343.04 347.17 1342.88 347.76C1342.71 348.34 1342.37 348.86 1341.89 349.23C1342.23 348.82 1342.44 348.32 1342.49 347.8C1342.54 347.27 1342.43 346.74 1342.18 346.27C1341.94 345.86 1341.59 345.51 1341.17 345.27C1340.75 345.03 1340.28 344.9 1339.8 344.9C1339.36 344.9 1338.92 344.99 1338.52 345.16C1338.12 345.34 1337.75 345.6 1337.46 345.93C1337.16 346.25 1336.94 346.64 1336.8 347.06C1336.66 347.48 1336.61 347.92 1336.66 348.36C1336.74 349.21 1337.11 350.02 1337.71 350.63C1338.31 351.24 1339.11 351.64 1339.96 351.74C1340.82 351.9 1341.71 351.79 1342.5 351.43C1343.3 351.07 1343.97 350.48 1344.42 349.73C1344.96 348.97 1345.29 348.09 1345.41 347.17C1345.52 346.25 1345.41 345.32 1345.09 344.45C1344.72 343.57 1344.18 342.77 1343.49 342.11C1342.8 341.44 1341.99 340.93 1341.1 340.59C1339.2 339.83 1337.08 339.83 1335.18 340.59C1333.16 341.41 1331.46 342.88 1330.37 344.77Z" fill="#E6B7A3" fill-opacity="1.000000" fill-rule="nonzero"/>
	<path id="Vector" d="M1280.41 231.95C1286.56 231.8 1292.56 229.89 1297.68 226.45C1305.24 221.41 1300.32 202.67 1290.57 194.54C1280.43 186.03 1260.88 192.85 1260.09 199.82C1259.3 206.8 1280.41 231.95 1280.41 231.95Z" fill="#FECAB4" fill-opacity="1.000000" fill-rule="nonzero"/>
	<path id="Vector" d="M1244.65 153.32L1261.71 143.62C1265.43 141.5 1270.18 142.8 1272.31 146.53L1309.09 211.2C1311.21 214.93 1309.91 219.67 1306.18 221.79L1289.12 231.5C1285.39 233.62 1280.64 232.32 1278.52 228.59L1241.74 163.91C1239.62 160.18 1240.92 155.44 1244.65 153.32Z" fill="#5C7F94" fill-opacity="1.000000" fill-rule="evenodd"/>
	<path id="Vector" d="M1243.82 153.8L1255.56 147.12C1258.84 145.26 1263 146.41 1264.87 149.68L1302.59 216.01C1304.44 219.28 1303.31 223.44 1300.04 225.3L1288.3 231.98C1285.03 233.84 1280.87 232.69 1279 229.42L1241.28 163.09C1239.42 159.82 1240.56 155.66 1243.82 153.8Z" fill="#496678" fill-opacity="1.000000" fill-rule="evenodd"/>
	<path id="Vector" d="M1257.9 208.75C1249.02 197.39 1257.9 181.54 1262.89 174.77C1267.88 168.01 1269.92 175.91 1267.19 185.13C1264.48 194.35 1265.31 198.05 1265.31 198.05C1265.31 198.05 1271.05 181.8 1277.55 178.16C1285.48 173.74 1274.67 211.08 1274.67 211.08C1274.67 211.08 1282.87 194.56 1287.09 196.68C1291.31 198.79 1280.06 221.91 1280.06 221.91C1280.06 221.91 1287.99 205.5 1292.09 207.91C1296.18 210.31 1287.3 229.46 1281.93 232.34C1276.57 235.22 1257.9 208.75 1257.9 208.75Z" fill="#FECAB4" fill-opacity="1.000000" fill-rule="nonzero"/>
	<path id="Vector" d="M1452.35 382.37L1590.56 412.86C1593.71 413.56 1595.7 416.67 1595.01 419.82L1575.17 509.76C1574.47 512.91 1571.36 514.9 1568.21 514.21L1429.99 483.72C1426.84 483.02 1424.85 479.91 1425.55 476.76L1445.39 386.82C1446.08 383.67 1449.2 381.68 1452.35 382.37Z" fill="#FC6262" fill-opacity="1.000000" fill-rule="evenodd"/>
	<path id="Vector" d="M1590.54 412.85L1452.35 382.36C1450.84 382.03 1449.26 382.31 1447.95 383.14C1446.64 383.98 1445.72 385.29 1445.38 386.8L1425.54 476.63C1425.21 478.15 1425.49 479.74 1426.33 481.04C1427.17 482.35 1428.49 483.27 1430 483.61L1568.18 514.1C1568.93 514.26 1569.71 514.28 1570.46 514.15C1571.22 514.02 1571.94 513.74 1572.59 513.33C1573.24 512.91 1573.8 512.38 1574.24 511.75C1574.68 511.12 1574.99 510.41 1575.16 509.66L1595 419.83C1595.17 419.08 1595.18 418.3 1595.05 417.54C1594.92 416.78 1594.63 416.06 1594.22 415.41C1593.8 414.76 1593.26 414.2 1592.63 413.76C1592 413.32 1591.29 413.02 1590.54 412.85ZM1589.53 423.76L1571.88 503.87C1571.74 504.57 1571.46 505.23 1571.05 505.81C1570.65 506.39 1570.13 506.89 1569.54 507.27C1568.94 507.65 1568.27 507.9 1567.57 508.02C1566.87 508.13 1566.15 508.11 1565.46 507.94L1435.07 479.2C1434.38 479.05 1433.73 478.77 1433.15 478.37C1432.56 477.97 1432.07 477.45 1431.69 476.86C1431.31 476.26 1431.05 475.6 1430.94 474.9C1430.82 474.2 1430.84 473.49 1431.01 472.8L1448.68 392.67C1448.83 391.97 1449.11 391.32 1449.51 390.74C1449.91 390.16 1450.42 389.66 1451.02 389.28C1451.62 388.9 1452.28 388.65 1452.98 388.53C1453.67 388.41 1454.39 388.43 1455.08 388.6L1585.46 417.29C1586.16 417.43 1586.83 417.72 1587.42 418.12C1588 418.53 1588.5 419.05 1588.88 419.66C1589.26 420.26 1589.52 420.94 1589.63 421.64C1589.74 422.35 1589.71 423.07 1589.53 423.76Z" fill="#C44C4C" fill-opacity="1.000000" fill-rule="nonzero"/>
	<path id="Vector" d="M1443.29 444.72C1451.26 455.49 1457.76 467.27 1462.63 479.75C1458.6 474.4 1454.98 468.76 1451.8 462.87C1448.53 457.03 1445.69 450.96 1443.29 444.72Z" fill="#FFFFFF" fill-opacity="1.000000" fill-rule="nonzero"/>
	<path id="Vector" d="M1536.19 496.32C1541.69 492.3 1547.47 488.69 1553.49 485.51C1559.45 482.24 1565.63 479.4 1571.99 477.03C1566.5 481.06 1560.72 484.67 1554.68 487.83C1548.73 491.11 1542.55 493.94 1536.19 496.32Z" fill="#FFFFFF" fill-opacity="1.000000" fill-rule="nonzero"/>
	<path id="Vector" d="M1509.21 286.82C1509.21 286.82 1514.34 331.56 1525.22 359.67C1525.22 359.67 1514.87 375.78 1509.56 432.91C1508.15 450.84 1504.77 468.56 1499.46 485.75L1526.73 488.68C1526.73 488.68 1558.75 385.8 1560.57 366.77C1562.4 347.75 1548.21 275.49 1548.21 275.49L1509.21 286.82Z" fill="#FECAB4" fill-opacity="1.000000" fill-rule="nonzero"/>
	<path id="Vector" d="M1541.31 369.18C1540.8 366.88 1541.14 364.48 1542.26 362.41C1542.88 361.35 1543.71 360.42 1544.69 359.68C1545.68 358.94 1546.8 358.4 1548 358.11C1549.25 357.79 1550.55 357.74 1551.82 357.97C1553.08 358.2 1554.29 358.69 1555.34 359.43C1556.41 360.24 1557.26 361.29 1557.82 362.5C1558.38 363.71 1558.64 365.04 1558.57 366.38C1558.5 367.76 1558.03 369.08 1557.2 370.19C1556.38 371.3 1555.25 372.13 1553.94 372.59C1552.64 373 1551.23 373 1549.93 372.59C1549.25 372.38 1548.62 372.04 1548.07 371.59C1547.53 371.13 1547.08 370.58 1546.76 369.94C1546.09 368.73 1545.93 367.31 1546.31 365.98C1546.48 365.32 1546.82 364.72 1547.28 364.22C1547.74 363.72 1548.31 363.33 1548.95 363.1C1549.56 362.89 1550.21 362.84 1550.85 362.95C1551.49 363.05 1552.08 363.32 1552.6 363.71C1553.06 364.1 1553.39 364.62 1553.55 365.21C1553.7 365.8 1553.68 366.42 1553.47 366.99C1553.54 366.47 1553.45 365.94 1553.22 365.47C1552.99 365 1552.63 364.61 1552.17 364.34C1551.77 364.11 1551.32 363.99 1550.85 363.99C1550.39 363.99 1549.93 364.11 1549.53 364.34C1549.15 364.57 1548.82 364.86 1548.56 365.22C1548.31 365.58 1548.13 365.99 1548.04 366.42C1547.95 366.85 1547.95 367.29 1548.04 367.72C1548.14 368.15 1548.32 368.56 1548.58 368.91C1549.1 369.61 1549.83 370.1 1550.66 370.33C1551.5 370.55 1552.38 370.49 1553.18 370.16C1553.99 369.84 1554.7 369.29 1555.19 368.58C1555.69 367.86 1555.97 367.01 1555.98 366.14C1556.04 365.23 1555.88 364.31 1555.51 363.48C1555.14 362.64 1554.58 361.9 1553.86 361.33C1553.11 360.78 1552.26 360.37 1551.35 360.15C1550.44 359.93 1549.5 359.89 1548.58 360.04C1546.56 360.36 1544.74 361.44 1543.48 363.05C1542.09 364.79 1541.33 366.95 1541.31 369.18Z" fill="#E6B7A3" fill-opacity="1.000000" fill-rule="nonzero"/>
	<path id="Vector" d="M1510.45 470.53C1513.07 470.52 1515.66 471.01 1518.09 471.98C1526.15 475.23 1528.66 474.92 1530.93 481.94C1533.57 489.87 1527.26 515.55 1522.82 515.55C1518.38 515.55 1518.35 513.33 1513.39 513.65C1508.42 513.96 1507.63 515.87 1503.95 513.33C1500.28 510.79 1498.67 512.91 1496.87 513.01C1495.08 513.12 1493.73 507.31 1491.59 507.31C1489.45 507.31 1487.92 506.04 1489.74 498.43C1491.56 490.82 1495.5 470.53 1503.11 470.53L1510.45 470.53Z" fill="#FECAB4" fill-opacity="1.000000" fill-rule="nonzero"/>
	<path id="PR" d="M1256.28 171.19Q1256.47 171.48 1256.56 171.67Q1256.62 171.76 1256.69 171.8Q1256.78 171.85 1256.88 171.85Q1257.07 171.86 1257.35 171.7Q1257.64 171.54 1257.69 171.32Q1257.77 171.11 1257.59 170.79Q1257.5 170.62 1257.35 170.41Q1257.19 170.19 1257.05 169.98Q1256.9 169.76 1256.76 169.56Q1256.62 169.36 1256.54 169.22Q1256.48 169.11 1256.5 169.02Q1256.52 168.94 1256.6 168.87Q1257.22 168.33 1257.68 167.73Q1258.16 167.14 1258.42 166.54Q1258.67 165.95 1258.69 165.4Q1258.72 164.99 1258.59 164.64Q1258.54 164.52 1258.48 164.41Q1258.38 164.23 1258.24 164.1Q1258.06 163.93 1257.85 163.81Q1257.43 163.6 1256.92 163.58Q1256.39 163.55 1255.79 163.72Q1255.18 163.88 1254.56 164.23Q1253.69 164.73 1253.06 165.28Q1252.44 165.84 1252.1 166.4Q1251.75 166.96 1251.68 167.5Q1251.66 167.78 1251.72 168.04Q1251.77 168.28 1251.9 168.51Q1252.09 168.84 1252.35 168.93Q1252.5 168.99 1252.65 168.96Q1252.73 168.95 1252.81 168.9Q1253.11 168.73 1253.19 168.55Q1253.28 168.4 1253.27 168.25Q1253.27 168.23 1253.27 168.2Q1253.24 168.03 1253.14 167.87Q1253.05 167.71 1252.98 167.56Q1252.9 167.42 1252.9 167.29Q1252.9 167.28 1252.91 167.26Q1252.93 167.15 1253.06 167.07Q1253.13 167.04 1253.19 167.03Q1253.31 167.03 1253.43 167.13Q1253.64 167.28 1253.93 167.69Q1254.13 167.97 1254.37 168.33Q1254.61 168.68 1254.87 169.06Q1255.13 169.44 1255.39 169.83Q1255.65 170.21 1255.87 170.56Q1256.1 170.9 1256.28 171.19ZM1260.1 163.24Q1260.21 163.18 1260.29 163.07Q1260.44 162.87 1260.63 162.67Q1260.66 162.63 1260.69 162.58Q1260.84 162.42 1261 162.27Q1261.18 162.08 1261.41 161.91Q1261.62 161.74 1261.82 161.62Q1262.05 161.49 1262.21 161.45Q1262.37 161.4 1262.49 161.41Q1262.6 161.42 1262.68 161.48Q1262.68 161.49 1262.68 161.49Q1262.77 161.56 1262.81 161.66Q1262.92 161.82 1262.89 162.08Q1262.86 162.34 1262.75 162.66Q1262.64 162.97 1262.48 163.31Q1262.31 163.66 1262.14 163.99Q1261.96 164.32 1261.78 164.6Q1261.61 164.89 1261.49 165.08Q1261.43 165.15 1261.4 165.19Q1261.37 165.23 1261.32 165.24Q1261.31 165.26 1261.28 165.26Q1261.18 165.28 1261.06 165.14Q1260.75 164.79 1260.41 164.44Q1260.07 164.09 1259.71 163.72Q1259.54 163.55 1259.36 163.54Q1259.24 163.54 1259.12 163.61Q1259.1 163.62 1259.07 163.64Q1259.06 163.66 1259.02 163.7Q1258.98 163.74 1258.91 163.81Q1258.85 163.87 1258.76 163.98Q1258.6 164.15 1258.6 164.32Q1258.6 164.44 1258.67 164.56Q1258.68 164.6 1258.71 164.64Q1258.74 164.68 1258.79 164.72Q1259.62 165.55 1260.39 166.42Q1261.17 167.3 1261.88 168.24Q1262.05 168.46 1262.23 168.47Q1262.34 168.48 1262.46 168.41Q1262.51 168.38 1262.55 168.35Q1262.59 168.32 1262.63 168.27L1262.84 168.05Q1263.01 167.85 1263 167.66Q1263 167.54 1262.93 167.42Q1262.89 167.33 1262.79 167.21Q1262.69 167.09 1262.59 166.96Q1262.49 166.83 1262.38 166.7Q1262.28 166.58 1262.21 166.51Q1262.19 166.48 1262.18 166.46Q1262.16 166.43 1262.15 166.42Q1262.11 166.36 1262.13 166.32Q1262.14 166.29 1262.18 166.26Q1262.23 166.24 1262.38 166.2Q1262.8 166.1 1263.3 166Q1263.8 165.9 1264.31 165.8Q1264.82 165.7 1265.34 165.62Q1265.84 165.53 1266.28 165.46Q1266.42 165.42 1266.51 165.38Q1266.57 165.34 1266.63 165.28Q1266.76 165.14 1266.77 164.91Q1266.8 164.77 1266.8 164.62Q1266.8 164.46 1266.73 164.35Q1266.69 164.29 1266.64 164.25Q1266.5 164.13 1266.23 164.18Q1265.46 164.32 1264.73 164.49Q1263.99 164.66 1263.27 164.79Q1263.1 164.82 1263.02 164.74Q1263.01 164.72 1263 164.7L1262.99 164.7Q1262.93 164.6 1263.05 164.42Q1263.18 164.21 1263.34 163.93Q1263.49 163.66 1263.64 163.36Q1263.78 163.05 1263.9 162.72Q1264.01 162.39 1264.06 162.06Q1264.11 161.74 1264.07 161.43Q1264.06 161.27 1264.02 161.12Q1263.97 160.98 1263.9 160.85Q1263.68 160.47 1263.4 160.3Q1263.17 160.16 1262.93 160.12Q1262.87 160.11 1262.81 160.1Q1262.79 160.1 1262.78 160.1Q1262.48 160.08 1262.18 160.18Q1262.06 160.22 1261.94 160.26Q1261.75 160.34 1261.56 160.45Q1261.37 160.56 1261.17 160.69Q1260.78 160.96 1260.42 161.29Q1260.38 161.33 1260.34 161.37Q1259.86 161.83 1259.43 162.36Q1259.29 162.56 1259.31 162.74Q1259.31 162.83 1259.37 162.92Q1259.39 162.96 1259.43 163.01Q1259.47 163.06 1259.55 163.13Q1259.73 163.3 1259.91 163.3Q1260.01 163.29 1260.1 163.24ZM1257.38 165.19Q1257.4 165.21 1257.41 165.23Q1257.5 165.38 1257.47 165.62Q1257.44 165.85 1257.34 166.12Q1257.23 166.4 1257.06 166.68Q1256.9 166.97 1256.69 167.22Q1256.5 167.48 1256.29 167.69Q1256.07 167.89 1255.89 168Q1255.85 168.02 1255.81 168.02Q1255.79 168.02 1255.76 168Q1255.69 167.96 1255.57 167.8Q1255.41 167.58 1255.22 167.3Q1255.02 167.03 1254.84 166.78Q1254.66 166.52 1254.52 166.33Q1254.39 166.13 1254.36 166.08Q1254.31 165.99 1254.31 165.92Q1254.31 165.85 1254.37 165.77Q1254.43 165.7 1254.55 165.61Q1254.68 165.52 1254.87 165.41Q1255.27 165.18 1255.67 165.05Q1256.07 164.93 1256.43 164.9Q1256.78 164.88 1257.04 164.96Q1257.27 165.03 1257.38 165.19Z" fill="#FFFFFF" fill-opacity="1.000000" fill-rule="evenodd"/>
	<path id="Vector" d="M1619.99 916.56C1619.99 922.42 1565.77 927.16 1498.9 927.16C1432.02 927.16 1377.81 922.42 1377.81 916.56C1377.81 910.71 1432.02 905.97 1498.9 905.97C1565.77 905.97 1619.99 910.71 1619.99 916.56Z" fill="#CBA543" fill-opacity="1.000000" fill-rule="evenodd"/>
	<path id="Vector" d="M296.24 267.99C296.24 267.99 321.7 242.53 329.88 224.41C329.88 224.41 326.68 214.25 329.69 209.02C332.7 203.79 349.57 188.69 354.09 191.9C358.61 195.1 365.16 207.74 362.46 213.03C359.77 218.32 343.22 229.06 343.22 229.06C343.22 229.06 322.6 270.43 309.84 279.73C297.08 289.03 296.24 267.99 296.24 267.99Z" fill="#FECAB4" fill-opacity="1.000000" fill-rule="nonzero"/>
	<path id="Vector" d="M231.85 191.45C246.67 193.37 263.6 265.2 275.43 272.03C287.26 278.86 318.02 239.07 318.02 239.07L332.1 255.1C332.1 255.1 291.4 311.86 275.37 306.67C259.33 301.47 229.09 245.74 229.09 245.74L231.85 191.45Z" fill="#263238" fill-opacity="1.000000" fill-rule="nonzero"/>
	<g opacity="0.050000">
		<path id="Vector" d="M231.85 191.45C246.67 193.37 263.6 265.2 275.43 272.03C287.26 278.86 318.02 239.07 318.02 239.07L332.1 255.1C332.1 255.1 291.4 311.86 275.37 306.67C259.33 301.47 229.09 245.74 229.09 245.74L231.85 191.45Z" fill="#FFFFFF" fill-opacity="1.000000" fill-rule="nonzero"/>
	</g>
	<path id="Vector" d="M321.83 854.58L302.37 858.01L294.38 831.46L287.07 807.09L309.55 799.23L316.06 828.54L321.83 854.58Z" fill="#FECAB4" fill-opacity="1.000000" fill-rule="nonzero"/>
	<path id="Vector" d="M297.97 857.53C297.65 855.35 324.33 852.4 324.33 852.4C324.33 852.4 343.57 866.03 359.9 866.96C376.22 867.89 369.17 878.89 351.56 882L307.95 889.7C295.44 891.91 301.37 879.88 297.97 857.53Z" fill="#263238" fill-opacity="1.000000" fill-rule="nonzero"/>
	<g opacity="0.200000">
		<path id="Vector" d="M316.16 829.15L294.48 832.01L287.14 807.34L309.58 799.36L316.16 829.15Z" fill="#000000" fill-opacity="1.000000" fill-rule="nonzero"/>
	</g>
	<path id="Vector" d="M191.8 862.92L172.01 862.92L168.77 835.37L165.82 810.1L189.33 806.29L190.64 836.27L191.8 862.92Z" fill="#FECAB4" fill-opacity="1.000000" fill-rule="nonzero"/>
	<path id="Vector" d="M167.78 861.67C167.78 859.49 194.62 861.19 194.62 861.19C194.62 861.19 211.1 877.96 227.14 881.74C243.17 885.53 234.19 895.11 216.3 895.11L172.01 895.11C159.31 895.11 167.27 884.28 167.78 861.67Z" fill="#263238" fill-opacity="1.000000" fill-rule="nonzero"/>
	<g opacity="0.200000">
		<path id="Vector" d="M190.64 836.88L168.77 835.92L165.82 810.39L189.33 806.41L190.64 836.88Z" fill="#000000" fill-opacity="1.000000" fill-rule="nonzero"/>
	</g>
	<path id="Vector" d="M318.02 813.69L285.95 819.34C253.62 738.85 230.66 671.63 214.44 615.87C205.68 585.79 198.89 559.01 193.63 535.28L195.2 622.92L195.2 822L162.62 822C83.5 444.78 139.56 358.55 139.56 358.55L234.19 342.52C237.92 359.91 240.57 377.52 242.11 395.24L246.38 426.51L283.38 617.53L318.02 813.69Z" fill="#F6A23C" fill-opacity="1.000000" fill-rule="nonzero"/>
	<path id="Vector" d="M280.98 815.36L320.68 802.21L320.13 819.08L287.3 829.57L280.98 815.36Z" fill="#F6A23C" fill-opacity="1.000000" fill-rule="nonzero"/>
	<path id="Vector" d="M158.35 817.19L199.78 811.13L196.29 827.68L162.14 832.29L158.35 817.19Z" fill="#F6A23C" fill-opacity="1.000000" fill-rule="nonzero"/>
	<path id="Vector" d="M225.66 152.13C225.52 152.17 225.38 152.17 225.24 152.13C213.19 144.85 202.41 118.08 201.96 116.86C201.92 116.76 201.9 116.66 201.9 116.55C201.9 116.45 201.92 116.34 201.97 116.25C202.01 116.15 202.07 116.06 202.14 115.99C202.22 115.92 202.31 115.87 202.41 115.83C202.61 115.76 202.83 115.76 203.03 115.84C203.23 115.93 203.38 116.08 203.47 116.28C203.47 116.54 214.47 143.7 225.92 150.69C226.1 150.8 226.23 150.98 226.29 151.19C226.34 151.4 226.31 151.62 226.21 151.81C226.07 151.98 225.88 152.1 225.66 152.13Z" fill="#263238" fill-opacity="1.000000" fill-rule="nonzero"/>
	<path id="Vector" d="M128.59 81.77C128.59 81.77 133.31 65.74 164.73 63.05C196.16 60.35 211.78 91.27 204.37 114.35C204.37 114.35 210.97 145.65 223.61 154.86C223.61 154.86 163.13 182.18 132.6 182.34C125.8 182.34 111.31 148.64 109.42 124.33C107.68 100.85 114.74 82.51 128.59 81.77Z" fill="#263238" fill-opacity="1.000000" fill-rule="nonzero"/>
	<path id="Vector" d="M139.56 344.41L139.56 358.55L236.08 351.15L236.08 334.44L139.56 344.41Z" fill="#263238" fill-opacity="1.000000" fill-rule="nonzero"/>
	<g opacity="0.300000">
		<path id="Vector" d="M139.56 344.41L139.56 358.55L236.08 351.15L236.08 334.44L139.56 344.41Z" fill="#FFFFFF" fill-opacity="1.000000" fill-rule="nonzero"/>
	</g>
	<path id="Vector" d="M192.7 339.73L213.82 337.84L215.25 353.84L194.14 355.73L192.7 339.73Z" fill="#FFFFFF" fill-opacity="1.000000" fill-rule="evenodd"/>
	<path id="Vector" d="M167.23 338.67L172 338.42L173.25 362.8L168.47 363.04L167.23 338.67Z" fill="#F6A23C" fill-opacity="1.000000" fill-rule="evenodd"/>
	<path id="Vector" d="M226.14 332.26L230.91 332.01L232.16 356.38L227.39 356.63L226.14 332.26Z" fill="#F6A23C" fill-opacity="1.000000" fill-rule="evenodd"/>
	<path id="Vector" d="M236.47 336.14L139.94 344.48C139.01 329.88 138.08 317.38 135.87 303.36C134.46 294.39 132.5 284.76 129.68 273.57C127.5 264.82 124.78 255.07 121.31 243.91C121.15 243.3 120.96 242.69 120.77 242.08C118.78 235.67 104.73 240.58 103.35 232.91C97.77 198.79 134.59 196.29 148.25 194.04C162.58 191.5 177.06 189.98 191.61 189.49C210.37 189.33 231.95 191.45 231.95 191.45C231.95 191.45 235.15 192.18 236.95 212.1C238.62 230.76 240.35 268.15 236.47 336.14Z" fill="#263238" fill-opacity="1.000000" fill-rule="nonzero"/>
	<path id="Vector" d="M183.52 210.82C159.76 207.61 152.61 197.6 152.61 197.6C167.68 183.37 155.14 158.67 155.14 158.67L183.78 164.03C183.14 168.02 182.76 172.05 182.66 176.09C182.47 193.47 190.32 193.63 190.32 193.63C195.2 203.05 183.52 210.82 183.52 210.82Z" fill="#FECAB4" fill-opacity="1.000000" fill-rule="nonzero"/>
	<g opacity="0.200000">
		<path id="Vector" d="M183.78 164.03C183.14 168.02 182.76 172.05 182.66 176.09C163.42 176.09 155.14 158.67 155.14 158.67L183.78 164.03Z" fill="#000000" fill-opacity="1.000000" fill-rule="nonzero"/>
	</g>
	<path id="Vector" d="M161.85 83.89C186.15 78.37 196.93 89.63 204.37 114.29C213.7 145.08 211.78 168.81 179.87 169.1C136.55 169.35 121.44 93.03 161.85 83.89Z" fill="#FECAB4" fill-opacity="1.000000" fill-rule="nonzero"/>
	<path id="Vector" d="M188.33 116.47C191.11 119.66 194.25 122.52 197.7 124.97C197.21 126.1 196.41 127.09 195.41 127.81C194.4 128.53 193.22 128.97 191.99 129.07L188.33 116.47Z" fill="#D58745" fill-opacity="1.000000" fill-rule="nonzero"/>
	<path id="Vector" d="M173.01 117.85C173.52 119.84 172.85 121.73 171.53 122.05C170.22 122.37 168.71 121.06 168.32 119.07C167.94 117.08 168.32 115.19 169.8 114.87C171.27 114.55 172.53 115.86 173.01 117.85Z" fill="#263238" fill-opacity="1.000000" fill-rule="nonzero"/>
	<path id="Vector" d="M169.19 115.09L173.07 112.33C173.07 112.33 171.85 116.5 169.19 115.09Z" fill="#263238" fill-opacity="1.000000" fill-rule="nonzero"/>
	<path id="Vector" d="M197.6 111.24C198.12 113.23 197.44 115.09 196.13 115.44C194.81 115.8 193.31 114.42 192.92 112.43C192.54 110.44 193.08 108.58 194.4 108.26C195.71 107.94 197.12 109.26 197.6 111.24Z" fill="#263238" fill-opacity="1.000000" fill-rule="nonzero"/>
	<path id="Vector" d="M193.79 108.49L197.67 105.7C197.67 105.7 196.45 109.83 193.79 108.49Z" fill="#263238" fill-opacity="1.000000" fill-rule="nonzero"/>
	<path id="Vector" d="M159.25 108.36C159.08 108.4 158.9 108.4 158.74 108.36C158.47 108.22 158.26 107.98 158.16 107.69C158.07 107.41 158.09 107.09 158.22 106.82C159.35 104.94 160.9 103.36 162.75 102.19C164.6 101.02 166.69 100.3 168.87 100.09C169.17 100.07 169.47 100.17 169.71 100.36C169.94 100.56 170.09 100.84 170.12 101.14C170.14 101.3 170.13 101.45 170.08 101.6C170.04 101.74 169.97 101.88 169.87 102C169.78 102.12 169.66 102.22 169.53 102.29C169.39 102.36 169.25 102.41 169.09 102.43C167.31 102.61 165.6 103.19 164.08 104.13C162.56 105.07 161.27 106.34 160.31 107.85C160.19 108.02 160.03 108.15 159.85 108.24C159.66 108.33 159.45 108.37 159.25 108.36Z" fill="#263238" fill-opacity="1.000000" fill-rule="nonzero"/>
	<path id="Vector" d="M186.41 97.26C186.22 97.26 186.03 97.21 185.86 97.12C185.69 97.02 185.55 96.88 185.45 96.72C185.29 96.46 185.23 96.15 185.29 95.85C185.35 95.55 185.52 95.29 185.77 95.11C187.49 94.22 189.39 93.73 191.33 93.68C193.27 93.63 195.19 94.02 196.96 94.83C197.11 94.87 197.25 94.95 197.37 95.05C197.49 95.16 197.58 95.29 197.65 95.43C197.72 95.57 197.76 95.72 197.76 95.88C197.77 96.04 197.74 96.2 197.68 96.34C197.63 96.49 197.54 96.62 197.43 96.73C197.32 96.85 197.19 96.94 197.04 96.99C196.9 97.05 196.74 97.08 196.58 97.08C196.43 97.08 196.27 97.04 196.13 96.97C194.71 96.29 193.16 95.94 191.59 95.94C190.02 95.94 188.47 96.29 187.05 96.97C186.87 97.13 186.65 97.24 186.41 97.26Z" fill="#263238" fill-opacity="1.000000" fill-rule="nonzero"/>
	<path id="Vector" d="M190.55 139.53C190.02 142.53 189.71 145.56 189.62 148.6L188.01 148.83C180.8 149.69 177.14 147.74 175.19 145.27C174.3 144.05 173.72 142.63 173.52 141.13C173.4 140.29 173.4 139.44 173.52 138.6C178.23 140.04 183.2 140.44 188.08 139.78C189.59 139.69 190.55 139.53 190.55 139.53Z" fill="#263238" fill-opacity="1.000000" fill-rule="nonzero"/>
	<path id="Vector" d="M188.08 139.78L187.73 142.45C180.9 143.28 175.99 142.93 173.62 141.13C173.49 140.29 173.49 139.44 173.62 138.6C178.3 140.02 183.23 140.43 188.08 139.78Z" fill="#FFFFFF" fill-opacity="1.000000" fill-rule="nonzero"/>
	<path id="Vector" d="M188.01 148.83C180.8 149.69 177.14 147.74 175.19 145.27C177.95 144.97 180.74 145.17 183.43 145.88C185.24 146.34 186.85 147.37 188.01 148.83Z" fill="#DE5753" fill-opacity="1.000000" fill-rule="nonzero"/>
	<path id="Vector" d="M144.53 130.87C144.53 130.87 151.39 108.42 146.17 93.32C146.17 93.32 189.91 62.69 203.34 111.08C203.34 111.08 198.21 66.57 156.2 75.07C114.19 83.57 128.21 144.69 153.93 158C153.93 157.94 140.33 145.11 144.53 130.87Z" fill="#263238" fill-opacity="1.000000" fill-rule="nonzero"/>
	<path id="Vector" d="M149.69 135.1C148.82 132.35 146.88 130.05 144.32 128.72C141.75 127.38 138.76 127.12 136 127.98C128.66 130.49 128.56 146.78 148.12 146.26C150.94 146.17 151.87 143.22 149.69 135.1Z" fill="#FECAB4" fill-opacity="1.000000" fill-rule="nonzero"/>
	<path id="Vector" d="M146.17 93.32C146.17 93.32 171.37 84.02 185.55 91.01C185.55 91.01 170.28 77.28 144.37 90.21L146.17 93.32Z" fill="#263238" fill-opacity="1.000000" fill-rule="nonzero"/>
	<path id="Vector" d="M130.55 200.23C130.55 200.23 158.48 222.91 184.49 222.52C210.49 222.14 219.76 192.92 219.76 192.92C219.76 192.92 179.16 180.99 130.55 200.23Z" fill="#FECAB4" fill-opacity="1.000000" fill-rule="nonzero"/>
	<g opacity="0.200000">
		<path id="Vector" d="M214.44 615.87C205.68 585.79 198.89 559.01 193.63 535.28C194.08 507.17 196.13 479.11 199.75 451.23C199.75 451.23 213.64 559.65 214.44 615.87Z" fill="#000000" fill-opacity="1.000000" fill-rule="nonzero"/>
	</g>
	<path id="Vector" d="M52.4 250.45C52.4 250.45 33.16 219.92 29.31 200.43C29.31 200.43 34.6 191.22 32.93 185.48C31.27 179.74 18.08 161.24 12.99 163.35C7.89 165.47 -1.35 176.18 0.16 182.08C1.67 187.98 15.42 202.12 15.42 202.12C15.42 202.12 26.29 247.02 36.65 258.95C47.01 270.88 52.4 250.45 52.4 250.45Z" fill="#FECAB4" fill-opacity="1.000000" fill-rule="nonzero"/>
	<path id="Vector" d="M104.51 216.2C114.13 214.86 133.88 233.84 130.9 250.26C127.92 266.68 100.4 312.85 79.17 309.26C49.19 304.17 16.26 225.28 16.26 225.28L32.71 210.94C32.71 210.94 71.54 278.29 79.17 276.88C86.81 275.46 104.51 216.2 104.51 216.2Z" fill="#263238" fill-opacity="1.000000" fill-rule="nonzero"/>
	<g opacity="0.050000">
		<path id="Vector" d="M104.51 216.2C114.13 214.86 133.88 233.84 130.9 250.26C127.92 266.68 100.4 312.85 79.17 309.26C49.19 304.17 16.26 225.28 16.26 225.28L32.71 210.94C32.71 210.94 71.54 278.29 79.17 276.88C86.81 275.46 104.51 216.2 104.51 216.2Z" fill="#FFFFFF" fill-opacity="1.000000" fill-rule="nonzero"/>
	</g>
	<path id="Vector" d="M9.52 220.31L33.54 205.88L37.36 212.1L14.69 232.17L9.52 220.31Z" fill="#263238" fill-opacity="1.000000" fill-rule="nonzero"/>
	<path id="Vector" d="M312.66 238.62L332.1 262.7L335.49 255.13L318.02 234.8L312.66 238.62Z" fill="#263238" fill-opacity="1.000000" fill-rule="nonzero"/>
	<path id="Vector" d="M322.38 206.04L353.1 168.58C353.35 168.28 353.67 168.03 354.02 167.85C354.38 167.67 354.76 167.57 355.16 167.54C355.56 167.52 355.95 167.58 356.33 167.71C356.7 167.84 357.04 168.05 357.33 168.33L371.02 181.15C371.56 181.65 371.89 182.34 371.93 183.07C371.98 183.81 371.75 184.53 371.28 185.1L340.08 223.39C339.82 223.71 339.5 223.97 339.13 224.15C338.77 224.34 338.37 224.44 337.96 224.46C337.55 224.48 337.14 224.41 336.76 224.26C336.38 224.11 336.03 223.87 335.75 223.58L322.51 209.79C322.05 209.28 321.78 208.62 321.76 207.94C321.73 207.25 321.95 206.58 322.38 206.04Z" fill="#F6A23C" fill-opacity="1.000000" fill-rule="nonzero"/>
	<g opacity="0.300000">
		<path id="Vector" d="M322.38 206.04L353.1 168.58C353.35 168.28 353.67 168.03 354.02 167.85C354.38 167.67 354.76 167.57 355.16 167.54C355.56 167.52 355.95 167.58 356.33 167.71C356.7 167.84 357.04 168.05 357.33 168.33L371.02 181.15C371.56 181.65 371.89 182.34 371.93 183.07C371.98 183.81 371.75 184.53 371.28 185.1L340.08 223.39C339.82 223.71 339.5 223.97 339.13 224.15C338.77 224.34 338.37 224.44 337.96 224.46C337.55 224.48 337.14 224.41 336.76 224.26C336.38 224.11 336.03 223.87 335.75 223.58L322.51 209.79C322.05 209.28 321.78 208.62 321.76 207.94C321.73 207.25 321.95 206.58 322.38 206.04Z" fill="#000000" fill-opacity="1.000000" fill-rule="nonzero"/>
	</g>
	<path id="Vector" d="M321.13 204.56L351.88 167.11C352.13 166.8 352.45 166.55 352.8 166.37C353.16 166.2 353.54 166.09 353.94 166.07C354.34 166.04 354.73 166.1 355.11 166.24C355.48 166.37 355.82 166.58 356.11 166.85L369.81 179.68C370.34 180.18 370.66 180.87 370.7 181.6C370.75 182.33 370.52 183.05 370.06 183.62L338.86 222.1C338.59 222.41 338.25 222.66 337.87 222.83C337.5 223 337.09 223.08 336.68 223.08C336.27 223.08 335.86 223 335.48 222.83C335.11 222.66 334.77 222.41 334.5 222.1L321.29 208.31C320.82 207.81 320.54 207.16 320.51 206.47C320.48 205.78 320.7 205.1 321.13 204.56Z" fill="#F6A23C" fill-opacity="1.000000" fill-rule="nonzero"/>
	<path id="Vector" d="M353.1 168.61L368.3 183.3L338.57 219.89L323.79 204.34L353.1 168.61Z" fill="#FFFFFF" fill-opacity="1.000000" fill-rule="nonzero"/>
	<path id="Vector" d="M512.28 306.4L724.43 306.4C742.99 306.4 758.03 321.44 758.03 340L758.03 825.99C758.03 844.55 742.99 859.59 724.43 859.59L512.28 859.59C493.72 859.59 478.67 844.55 478.67 825.99L478.67 340C478.67 321.44 493.72 306.4 512.28 306.4Z" fill="#455A64" fill-opacity="1.000000" fill-rule="evenodd"/>
	<path id="Vector" d="M753.62 340.28L753.62 825.72C753.62 842 740.42 855.2 724.14 855.2L512.55 855.2C496.26 855.2 483.06 842 483.06 825.72L483.06 340.28C483.06 324 496.26 310.8 512.55 310.8L724.14 310.8C740.42 310.8 753.62 324 753.62 340.28Z" fill="#263238" fill-opacity="1.000000" fill-rule="evenodd"/>
	<path id="Vector" d="M598.29 328.23C597.46 328.23 596.67 327.9 596.09 327.32C595.51 326.74 595.18 325.95 595.18 325.12C595.18 324.3 595.51 323.51 596.09 322.93C596.67 322.35 597.46 322.02 598.29 322.02L638.23 322.02C639.06 322.02 639.85 322.35 640.43 322.93C641.01 323.51 641.34 324.3 641.34 325.12C641.34 325.95 641.01 326.74 640.43 327.32C639.85 327.9 639.06 328.23 638.23 328.23L598.29 328.23Z" fill="#455A64" fill-opacity="1.000000" fill-rule="nonzero"/>
	<path id="Vector" d="M576.87 328.23C576.25 328.23 575.65 328.04 575.14 327.7C574.63 327.36 574.24 326.88 574 326.31C573.77 325.74 573.7 325.12 573.82 324.52C573.94 323.92 574.24 323.36 574.67 322.93C575.11 322.49 575.66 322.2 576.26 322.08C576.86 321.96 577.49 322.02 578.06 322.26C578.62 322.49 579.11 322.89 579.45 323.4C579.79 323.91 579.97 324.51 579.97 325.12C579.97 325.95 579.64 326.73 579.06 327.31C578.48 327.9 577.69 328.22 576.87 328.23Z" fill="#455A64" fill-opacity="1.000000" fill-rule="nonzero"/>
	<path id="Vector" d="M588.3 328.23C587.69 328.23 587.09 328.04 586.58 327.7C586.07 327.36 585.67 326.88 585.43 326.31C585.2 325.74 585.14 325.12 585.26 324.52C585.38 323.92 585.67 323.36 586.11 322.93C586.54 322.49 587.09 322.2 587.69 322.08C588.3 321.96 588.92 322.02 589.49 322.26C590.06 322.49 590.54 322.89 590.88 323.4C591.22 323.91 591.4 324.51 591.4 325.12C591.4 325.95 591.08 326.74 590.49 327.32C589.91 327.9 589.12 328.23 588.3 328.23Z" fill="#455A64" fill-opacity="1.000000" fill-rule="nonzero"/>
	<path id="Vector" d="M659.84 328.23C659.23 328.23 658.63 328.04 658.12 327.7C657.61 327.36 657.21 326.88 656.97 326.31C656.74 325.74 656.68 325.12 656.8 324.52C656.92 323.92 657.21 323.36 657.65 322.93C658.08 322.49 658.63 322.2 659.23 322.08C659.84 321.96 660.46 322.02 661.03 322.26C661.6 322.49 662.08 322.89 662.42 323.4C662.76 323.91 662.94 324.51 662.94 325.12C662.94 325.95 662.61 326.73 662.03 327.31C661.45 327.9 660.66 328.22 659.84 328.23Z" fill="#455A64" fill-opacity="1.000000" fill-rule="nonzero"/>
	<path id="Vector" d="M648.41 328.23C647.79 328.23 647.19 328.04 646.68 327.7C646.17 327.36 645.77 326.88 645.54 326.31C645.3 325.74 645.24 325.12 645.36 324.52C645.48 323.92 645.78 323.36 646.21 322.93C646.65 322.49 647.2 322.2 647.8 322.08C648.4 321.96 649.03 322.02 649.59 322.26C650.16 322.49 650.65 322.89 650.99 323.4C651.33 323.91 651.51 324.51 651.51 325.12C651.51 325.95 651.18 326.73 650.6 327.31C650.02 327.9 649.23 328.22 648.41 328.23Z" fill="#455A64" fill-opacity="1.000000" fill-rule="nonzero"/>
	<path id="Vector" d="M728.15 314.7L679.79 314.7C678.02 314.7 676.29 315.27 674.88 316.33C673.46 317.39 672.42 318.88 671.92 320.58L668.85 331.19C668.29 333.1 667.13 334.78 665.54 335.97C663.95 337.17 662.02 337.82 660.02 337.82L576.66 337.82C574.67 337.82 572.73 337.17 571.14 335.97C569.55 334.78 568.39 333.1 567.84 331.19L564.76 320.58C564.26 318.87 563.23 317.37 561.81 316.31C560.39 315.24 558.66 314.66 556.88 314.66L519.32 314.66C515.39 314.66 511.5 315.44 507.86 316.94C504.23 318.45 500.93 320.65 498.15 323.43C495.37 326.21 493.16 329.51 491.65 333.15C490.15 336.78 489.38 340.68 489.38 344.61L489.38 827.79C489.38 833.16 491.51 838.31 495.3 842.1C499.1 845.9 504.25 848.03 509.61 848.03L729.57 848.03C734.29 848.03 738.81 846.16 742.14 842.82C745.47 839.49 747.35 834.97 747.35 830.26L747.35 333.84C747.33 328.76 745.3 323.89 741.71 320.3C738.11 316.72 733.24 314.7 728.15 314.7Z" fill="#FAFAFA" fill-opacity="1.000000" fill-rule="nonzero"/>
	<path id="Vector" d="M758.45 490.22L758.03 490.22L758.03 426.69L758.45 426.69C758.82 426.69 759.18 426.84 759.45 427.1C759.72 427.37 759.86 427.73 759.86 428.11L759.86 488.8C759.86 489.17 759.72 489.53 759.45 489.8C759.18 490.07 758.82 490.22 758.45 490.22Z" fill="#455A64" fill-opacity="1.000000" fill-rule="nonzero"/>
	<path id="PrimeREM" d="M531.85 555.3L521.67 555.3L521.67 595.56L526.73 595.56L526.73 577.84L530.76 577.84Q535.62 577.84 538.54 575.46Q538.96 575.11 539.35 574.71Q539.66 574.39 539.94 574.04Q542.38 571.01 542.38 566Q542.38 560.56 539.67 557.89Q537.03 555.3 531.85 555.3ZM562.4 556.16L562.4 560.76L566.99 560.76L566.99 556.16L562.4 556.16ZM534.15 573.04Q532.62 574.05 530.42 574.05L526.73 574.05L526.73 559.09L530.42 559.09Q533.67 559.09 535.42 560.71Q535.49 560.78 535.56 560.85Q535.62 560.91 535.68 560.97Q537.32 562.72 537.32 566Q537.32 569.34 535.72 571.53Q535.62 571.67 535.5 571.81Q534.91 572.55 534.15 573.04ZM550.55 565.65L546.98 565.65L546.98 595.56L551.58 595.56L551.58 571.06Q554.81 569.51 556.07 569.08Q557.33 568.64 558.08 568.64L558.08 565.24Q557.87 565.24 557.66 565.25Q556.61 565.32 555.58 565.71Q554.34 566.17 552.5 567.08L551.07 567.78L550.55 565.65ZM577.47 565.65L573.9 565.65L573.9 595.56L578.49 595.56L578.49 570.77Q584.48 568.94 584.94 568.94Q585.59 568.94 585.89 569.26Q586.02 569.4 586.09 569.59Q586.32 570.26 586.32 571.93L586.32 595.56L590.92 595.56L590.92 570.77Q596.79 568.94 597.26 568.94Q597.89 568.94 598.19 569.25Q598.32 569.39 598.39 569.59Q598.63 570.26 598.63 571.93L598.63 595.56L603.24 595.56L603.24 570.42Q603.24 568.12 602.23 566.69Q601.9 566.22 601.47 565.91Q600.55 565.24 599.15 565.24Q597.78 565.24 594.84 566.06Q591.9 566.86 590.29 567.43Q589.82 566.39 589.02 565.84Q588.13 565.24 586.84 565.24Q585.57 565.24 584.17 565.56Q582.76 565.87 580.35 566.63L577.99 567.32L577.47 565.65ZM611.38 594.4Q613.06 595.56 615.55 595.56L622.44 595.56L622.44 592.11L616.23 592.11Q615.41 592.11 614.77 591.76Q614.39 591.55 614.07 591.22Q613.84 590.97 613.67 590.68Q613.24 589.93 613.24 588.95L613.24 583.31L620.03 581.4Q622.27 580.77 623.65 579.54Q623.85 579.36 624.02 579.16Q625.04 577.96 625.04 575.89L625.04 573.25Q625.04 569.94 623.44 567.89Q623.23 567.62 622.99 567.38Q622.9 567.28 622.81 567.19Q620.77 565.24 616.87 565.24Q612.96 565.24 610.89 567.19Q610.79 567.28 610.7 567.38Q610.45 567.64 610.22 567.93Q608.64 569.97 608.64 573.25L608.64 588.54Q608.64 591.18 609.89 592.93Q610.16 593.32 610.5 593.66Q610.91 594.08 611.38 594.4ZM562.4 565.65L562.4 595.56L566.99 595.56L566.99 565.65L562.4 565.65ZM619.31 577.94Q618.65 578.19 616.75 578.71L613.24 579.69L613.24 572.26Q613.24 570.8 613.96 569.92Q614.09 569.76 614.24 569.62Q614.45 569.43 614.68 569.28Q615.58 568.7 616.87 568.7Q618.45 568.7 619.37 569.47Q619.43 569.52 619.48 569.57Q619.51 569.6 619.55 569.63Q620.43 570.49 620.43 572.26L620.43 575.42Q620.43 576.63 620.19 577.15Q620.16 577.22 620.13 577.28Q619.88 577.7 619.31 577.94Z" fill="#060000" fill-opacity="1.000000" fill-rule="evenodd"/>
	<path id="PrimeREM" d="M641.03 555.3L630.38 555.3L630.38 595.56L635.33 595.56L635.33 577.91L640.62 577.91L648.44 595.56L653.38 595.56L645.39 577.15Q646.35 576.77 647.17 576.18Q648.79 575 649.82 573.01Q651.38 570.02 651.38 566Q651.38 560.65 648.85 557.98Q648.81 557.95 648.78 557.91Q646.25 555.3 641.03 555.3ZM658.74 555.3L658.74 595.56L676.85 595.56L676.85 591.64L663.79 591.64L663.79 576L673.92 576L673.92 572.09L663.79 572.09L663.79 559.2L676.28 559.2L676.28 555.3L658.74 555.3ZM682.78 555.3L682.78 595.56L687.84 595.56L687.84 561.28L695.55 584.86L701.01 584.86L708.72 561.34L708.72 595.56L713.79 595.56L713.79 555.3L706.43 555.3L698.54 579.12L698.14 579.12L690.43 555.3L682.78 555.3ZM643.24 573.1Q641.71 574.1 639.52 574.1L635.44 574.1L635.44 559.09L639.52 559.09Q642.81 559.09 644.56 560.73Q644.62 560.79 644.68 560.85Q644.74 560.91 644.8 560.97Q646.43 562.72 646.43 566Q646.43 569.32 644.86 571.52Q644.75 571.68 644.62 571.84Q644.01 572.6 643.24 573.1Z" fill="#DC4A3E" fill-opacity="1.000000" fill-rule="evenodd"/>
	<path id="Vector" d="M385.01 916.56C385.01 922.42 330.8 927.16 263.92 927.16C197.05 927.16 142.83 922.42 142.83 916.56C142.83 910.71 197.05 905.97 263.92 905.97C330.8 905.97 385.01 910.71 385.01 916.56Z" fill="#CBA543" fill-opacity="1.000000" fill-rule="evenodd"/>
	<path id="Vector" d="M730.22 884.3C730.22 889.93 678.1 894.49 613.81 894.49C549.52 894.49 497.4 889.93 497.4 884.3C497.4 878.68 549.52 874.12 613.81 874.12C678.1 874.12 730.22 878.68 730.22 884.3Z" fill="#CBA543" fill-opacity="1.000000" fill-rule="evenodd"/>
</svg>
